<svg width="54" height="48" viewBox="0 0 54 48" fill="none" xmlns="http://www.w3.org/2000/svg">
<path d="M24.375 39.75H11.775C8.8347 39.75 7.3646 39.75 6.2416 39.178C5.2537 38.675 4.4505 37.872 3.9472 36.884C3.375 35.761 3.375 34.291 3.375 31.35V11.4C3.375 8.45999 3.375 6.99 3.9472 5.867C4.4505 4.879 5.2537 4.07599 6.2416 3.57199C7.3646 2.99999 8.8347 3 11.775 3H42.225C45.1653 3 46.6355 2.99999 47.7585 3.57199C48.7463 4.07599 49.5495 4.879 50.0527 5.867C50.625 6.99 50.625 8.45999 50.625 11.4V21.375M3.375 13.5H50.625M42.75 45C42.75 38.85 42.75 35.401 42.75 29.25M50.625 37.127C50.625 37.127 41.0258 37.126 34.875 37.125" stroke="#02409E" stroke-width="5.25" stroke-linecap="round" stroke-linejoin="round"/>
</svg>
