<svg width="35" height="36" viewBox="0 0 35 36" fill="none" xmlns="http://www.w3.org/2000/svg">
<path d="M34.1509 12.4748L18.8175 1.53061C18.4929 1.29949 18.1043 1.17529 17.7059 1.17529C17.3074 1.17529 16.9188 1.29949 16.5942 1.53061L1.26087 12.4748C0.896575 12.7867 0.662465 13.2239 0.604753 13.7C0.547041 14.1761 0.669922 14.6566 0.949137 15.0465C1.22835 15.4364 1.64361 15.7075 2.11294 15.8063C2.58226 15.905 3.07155 15.8242 3.4842 15.5798L4.2892 15.0048V33.7498C4.2892 34.2581 4.49114 34.7456 4.85058 35.1051C5.21002 35.4645 5.69754 35.6664 6.20587 35.6664H29.2059C29.7142 35.6664 30.2017 35.4645 30.5612 35.1051C30.9206 34.7456 31.1225 34.2581 31.1225 33.7498V15.0048L31.9275 15.5798C32.2511 15.814 32.6397 15.9414 33.0392 15.9439C33.4432 15.9414 33.836 15.8112 34.1616 15.572C34.4872 15.3329 34.7289 14.9969 34.8522 14.6122C34.9755 14.2275 34.974 13.8136 34.8481 13.4298C34.7221 13.0459 34.4781 12.7117 34.1509 12.4748Z" fill="#F6F6F6"/>
<path d="M33.0394 35.6668H2.37272C1.86439 35.6668 1.37688 35.4649 1.01743 35.1055C0.657989 34.746 0.456055 34.2585 0.456055 33.7502C0.456055 33.2418 0.657989 32.7543 1.01743 32.3949C1.37688 32.0354 1.86439 31.8335 2.37272 31.8335H33.0394C33.5477 31.8335 34.0352 32.0354 34.3947 32.3949C34.7541 32.7543 34.9561 33.2418 34.9561 33.7502C34.9561 34.2585 34.7541 34.746 34.3947 35.1055C34.0352 35.4649 33.5477 35.6668 33.0394 35.6668Z" fill="#F6F6F6"/>
<path d="M23.4561 22.2504V33.7504C23.4561 34.2588 23.2541 34.7463 22.8947 35.1057C22.5352 35.4652 22.0477 35.6671 21.5394 35.6671H13.8727C13.3644 35.6671 12.8769 35.4652 12.5174 35.1057C12.158 34.7463 11.9561 34.2588 11.9561 33.7504V22.2504C11.9561 21.7421 12.158 21.2546 12.5174 20.8952C12.8769 20.5357 13.3644 20.3338 13.8727 20.3338H21.5394C22.0477 20.3338 22.5352 20.5357 22.8947 20.8952C23.2541 21.2546 23.4561 21.7421 23.4561 22.2504Z" fill="url(#paint0_linear_3059_543)"/>
<defs>
<linearGradient id="paint0_linear_3059_543" x1="21.3383" y1="20.7326" x2="21.3383" y2="35.8616" gradientUnits="userSpaceOnUse">
<stop offset="0.2" stop-color="#1E1D1B" stop-opacity="0.41"/>
<stop offset="1" stop-color="#0D57BD"/>
</linearGradient>
</defs>
</svg>
