<svg width="33" height="23" viewBox="0 0 33 23" fill="none" xmlns="http://www.w3.org/2000/svg">
<g clip-path="url(#clip0_3535_456)">
<path d="M30.5724 17.7282C29.7422 16.2525 28.3826 14.581 26.1691 13.6309C24.9031 14.5165 23.3652 15.038 21.7072 15.038C20.0483 15.038 18.5103 14.5166 17.2443 13.6309C15.0309 14.581 13.6712 16.2525 12.8415 17.7282C11.7404 19.6854 12.6037 22.4549 14.508 22.4549C16.4124 22.4549 21.7072 22.4549 21.7072 22.4549C21.7072 22.4549 27.0015 22.4549 28.9059 22.4549C30.8102 22.4549 31.6735 19.6854 30.5724 17.7282Z" fill="#02409E"/>
<path d="M21.7068 13.1852C24.9583 13.1852 27.5933 10.5492 27.5933 7.29818V5.88794C27.5933 2.63693 24.9583 0.000976562 21.7068 0.000976562C18.4548 0.000976562 15.8193 2.63693 15.8193 5.88798V7.29823C15.8193 10.5492 18.4549 13.1852 21.7068 13.1852Z" fill="#02409E"/>
</g>
<path d="M6.5 15.4385V10.9391M6.5 10.9391V6.43848M6.5 10.9391L11 10.9397M6.5 10.9391L2 10.9385" stroke="#02409E" stroke-width="3" stroke-linecap="round" stroke-linejoin="round"/>
<defs>
<clipPath id="clip0_3535_456">
<rect width="22.4531" height="22.4531" fill="white" transform="translate(10.4813)"/>
</clipPath>
</defs>
</svg>
