<svg width="32" height="32" viewBox="0 0 32 32" fill="none" xmlns="http://www.w3.org/2000/svg">
<path d="M5.83768 24.7668H7.06693C7.83784 24.7668 8.44202 24.173 8.44202 23.4021V21.652C10.7547 21.7978 14.0987 21.902 16.776 21.902C19.4637 21.902 22.8078 21.7978 25.1204 21.652V23.4021C25.1204 24.173 25.7142 24.7668 26.4954 24.7668H27.7248C28.506 24.7668 29.1103 24.173 29.1103 23.4021V17.3912C29.1103 15.6411 28.7561 14.6515 27.7873 13.4014L26.9123 12.2658C26.5268 10.3907 25.8392 8.42177 25.4745 7.65091C24.9224 6.47371 23.839 5.77574 22.4536 5.58822C21.7556 5.50492 19.4742 5.44238 16.776 5.44238C14.0883 5.44238 11.8069 5.51532 11.1089 5.58822C9.7234 5.7549 8.63999 6.47371 8.08785 7.65091C7.72325 8.42177 7.03568 10.3907 6.65023 12.2658L5.77514 13.4014C4.80635 14.6515 4.45215 15.6411 4.45215 17.3912V23.4021C4.45215 24.173 5.05637 24.7668 5.83768 24.7668ZM8.75457 11.4012C9.00459 10.2552 9.50463 8.76557 9.84839 8.16135C10.1297 7.67171 10.4318 7.46338 10.9943 7.39045C11.7861 7.27586 13.557 7.21337 16.776 7.21337C20.0055 7.21337 21.7764 7.25501 22.5681 7.39045C23.1203 7.47379 23.4223 7.67171 23.714 8.16135C24.0683 8.75513 24.5371 10.2552 24.8078 11.4012C24.9017 11.7866 24.7453 11.9325 24.3391 11.9012C22.6098 11.7971 20.5471 11.6825 16.776 11.6825C13.0153 11.6825 10.9527 11.7971 9.22337 11.9012C8.81707 11.9325 8.67123 11.7866 8.75457 11.4012ZM9.18167 19.2039C8.19204 19.2039 7.45238 18.4538 7.45238 17.4746C7.45238 16.4849 8.19204 15.7453 9.18167 15.7453C10.1714 15.7453 10.911 16.4849 10.911 17.4746C10.911 18.4538 10.1714 19.2039 9.18167 19.2039ZM24.3807 19.2039C23.3912 19.2039 22.6515 18.4538 22.6515 17.4746C22.6515 16.4849 23.3912 15.7453 24.3807 15.7453C25.36 15.7453 26.1101 16.4849 26.1101 17.4746C26.1101 18.4538 25.36 19.2039 24.3807 19.2039ZM14.0154 18.7247C13.2862 18.7247 12.7757 18.2038 12.7757 17.4746C12.7757 16.735 13.2862 16.2245 14.0154 16.2245H19.5471C20.2763 16.2245 20.7868 16.735 20.7868 17.4746C20.7868 18.2038 20.2763 18.7247 19.5471 18.7247H14.0154Z" fill="#1E1D1B"/>
</svg>
