<svg width="32" height="32" viewBox="0 0 32 32" fill="none" xmlns="http://www.w3.org/2000/svg">
<path d="M15.6547 10.3288C14.9184 10.0779 14.1082 9.9375 13.2596 9.9375C10.6638 9.9375 8.43841 11.2357 7.49902 13.084H15.6523V10.3288H15.6547Z" fill="#1E1D1B"/>
<path d="M9.75805 20.7443H22.9859C24.9985 19.034 26.2653 16.5574 26.2653 13.7999C26.2653 8.90402 22.276 4.88746 17.199 4.49156C17.1775 4.48926 17.156 4.48926 17.1368 4.48926C16.7185 4.48926 16.3719 4.81611 16.3719 5.22582V10.6188V13.7768C16.3719 13.7768 9.52378 13.7768 7.22193 13.7768H7.21954C6.80124 13.7791 6.47377 14.1198 6.50724 14.5203C6.70563 16.9878 7.9199 19.186 9.75805 20.7443Z" fill="#1E1D1B"/>
<path d="M11.2283 26.061C12.4956 26.061 13.5229 25.0717 13.5229 23.8513C13.5229 22.6309 12.4956 21.6416 11.2283 21.6416C9.96095 21.6416 8.93359 22.6309 8.93359 23.8513C8.93359 25.0717 9.96095 26.061 11.2283 26.061Z" fill="#1E1D1B"/>
<path d="M21.1785 26.061C22.4458 26.061 23.4731 25.0717 23.4731 23.8513C23.4731 22.6309 22.4458 21.6416 21.1785 21.6416C19.9111 21.6416 18.8838 22.6309 18.8838 23.8513C18.8838 25.0717 19.9111 26.061 21.1785 26.061Z" fill="#1E1D1B"/>
</svg>
