<svg width="29" height="29" viewBox="0 0 29 29" fill="none" xmlns="http://www.w3.org/2000/svg">
<path d="M14.645 24.5749L14.5 24.733L14.3405 24.5749C7.453 17.7635 2.9 13.2594 2.9 8.6921C2.9 5.53133 5.075 3.16076 7.975 3.16076C10.208 3.16076 12.383 4.74114 13.1515 6.89046H15.8485C16.617 4.74114 18.792 3.16076 21.025 3.16076C23.925 3.16076 26.1 5.53133 26.1 8.6921C26.1 13.2594 21.547 17.7635 14.645 24.5749ZM21.025 0C18.502 0 16.0805 1.28011 14.5 3.28719C12.9195 1.28011 10.498 0 7.975 0C3.509 0 0 3.80872 0 8.6921C0 14.6501 4.93 19.5335 12.3975 26.9139L14.5 29L16.6025 26.9139C24.07 19.5335 29 14.6501 29 8.6921C29 3.80872 25.491 0 21.025 0Z" fill="#F5F5F5"/>
<rect x="1.68164" y="4.36035" width="25.1089" height="12.8937" rx="4.75033" fill="#F5F5F5"/>
<rect x="8.46802" y="5.03906" width="12.2151" height="19.6799" rx="4.75033" fill="#F5F5F5"/>
<rect x="2.36035" y="3.00293" width="12.2151" height="12.2151" rx="4.75033" fill="#F5F5F5"/>
<rect x="15.2539" y="3.00293" width="12.2151" height="12.2151" rx="4.75033" fill="#F5F5F5"/>
<rect x="22.7112" y="8.43262" width="12.2151" height="16.9655" rx="4.75033" transform="rotate(88.278 22.7112 8.43262)" fill="#F5F5F5"/>
</svg>
