<svg width="33" height="23" viewBox="0 0 33 23" fill="none" xmlns="http://www.w3.org/2000/svg">
<path d="M32.1497 19.8273V3.17734C32.1497 1.64184 30.9102 0.402344 29.3747 0.402344H3.45615C1.92065 0.402344 0.681152 1.64184 0.681152 3.17734V19.8273C0.681152 21.3628 1.92065 22.6023 3.45615 22.6023H29.3747C30.9102 22.6023 32.1497 21.3628 32.1497 19.8273ZM29.7262 2.97384C30.3367 3.58434 30.0037 4.21334 29.6707 4.52784L22.1597 11.4098L29.3747 18.9208C29.5967 19.1798 29.7447 19.5868 29.4857 19.8643C29.2452 20.1603 28.6902 20.1418 28.4497 19.9568L20.3652 13.0563L16.4062 16.6638L12.4657 13.0563L4.38115 19.9568C4.14065 20.1418 3.58565 20.1603 3.34515 19.8643C3.08615 19.5868 3.23415 19.1798 3.45615 18.9208L10.6712 11.4098L3.16015 4.52784C2.82715 4.21334 2.49415 3.58434 3.10465 2.97384C3.71515 2.36334 4.34415 2.65934 4.86215 3.10334L16.4062 12.4273L27.9687 3.10334C28.4867 2.65934 29.1157 2.36334 29.7262 2.97384Z" fill="#003B95"/>
</svg>
