<svg width="25" height="30" viewBox="0 0 25 30" fill="none" xmlns="http://www.w3.org/2000/svg">
<path d="M8.68538 1.22627C8.68538 1.22627 8.36313 0.197502 7.7199 0.133013C7.08688 0.0695464 6.7283 0.328795 6.48857 0.508433C6.24884 0.688072 2.27318 3.33814 2.27318 3.33814C2.27318 3.33814 1.11143 4.16398 1.01717 5.92701C0.910147 7.68876 1.00305 10.2208 2.43588 13.8785C3.85672 17.5272 7.75224 23.2752 10.3628 25.4203C10.3628 25.4203 12.7555 27.6685 15.0866 28.7182C15.7652 29.0093 17.1377 29.4369 17.4644 29.4697C17.7962 29.5029 18.382 29.5617 19.1039 29.1378C19.8377 28.7099 23.9848 26.0087 23.9848 26.0087C23.9848 26.0087 25.0092 25.2541 24.0169 24.1582C23.0195 23.0618 19.911 20.5342 19.2567 19.8859C18.602 19.2286 17.5603 19.3845 17.0815 19.7374C16.6037 20.093 15.7554 20.6718 15.6514 20.7452C15.4975 20.8406 15.07 21.1574 14.6487 20.936C14.1118 20.6592 11.9445 19.185 10.111 16.0647C8.29004 12.9482 8.15296 11.9753 7.9406 10.9176C7.90235 10.7606 7.91818 10.5952 7.98555 10.4483C8.05291 10.3014 8.16787 10.1814 8.31183 10.1079C8.65034 9.92015 9.91293 9.06575 9.91293 9.06575C9.91293 9.06575 10.7418 8.39732 10.5145 7.48894C10.2871 6.58055 8.68538 1.22627 8.68538 1.22627Z" fill="#003B95"/>
</svg>
