<svg width="24" height="24" viewBox="0 0 24 24" fill="none" xmlns="http://www.w3.org/2000/svg">
<path fill-rule="evenodd" clip-rule="evenodd" d="M16.775 1.13125C18.4919 0.610112 20.2821 1.69358 20.6033 3.4482L20.9362 5.26723C22.1346 5.65791 23 6.77825 23 8.09938V10.845C23.6137 11.3906 24 12.1836 24 13.0663V15.053C24 15.9356 23.6137 16.7286 23 17.2743V20.0199C23 21.6658 21.6569 23 20 23H4C2.34315 23 1 21.6658 1 20.0199V8.09938C1 6.62232 2.08174 5.39625 3.50118 5.16026L16.775 1.13125ZM21 16.0464C21.5523 16.0464 22 15.6016 22 15.053V13.0663C22 12.5176 21.5523 12.0729 21 12.0729H18C17.4477 12.0729 17 12.5176 17 13.0663V15.053C17 15.6016 17.4477 16.0464 18 16.0464H21ZM21 18.0331V20.0199C21 20.5685 20.5523 21.0133 20 21.0133H4C3.44772 21.0133 3 20.5685 3 20.0199V8.09938C3 7.55076 3.44772 7.106 4 7.106H20C20.55 7.106 20.9962 7.54702 21 8.09246V10.0861H18C16.3431 10.0861 15 11.4203 15 13.0663V15.053C15 16.6989 16.3431 18.0331 18 18.0331H21ZM18.6954 3.73553L18.9412 5.11925H10L17.4232 2.95669C17.9965 2.78586 18.5914 3.15008 18.6954 3.73553Z" fill="#4CC538"/>
</svg>
