<svg width="40" height="39" viewBox="0 0 40 39" fill="none" xmlns="http://www.w3.org/2000/svg">
<g clip-path="url(#clip0_3_11856)">
<path d="M4.00002 2.99609C2.67815 2.99609 1.60002 4.07422 1.60002 5.39609V16.4461C2.63752 15.5461 3.95002 14.818 5.60002 14.2461V10.9961C5.60002 8.86797 9.2344 8.59609 12.4 8.59609C15.5656 8.59609 19.2 8.86797 19.2 10.9961V12.5961C19.4688 12.593 19.725 12.5961 20 12.5961C20.275 12.5961 20.5313 12.593 20.8 12.5961V10.9961C20.8 8.86797 24.4344 8.59609 27.6 8.59609C30.7656 8.59609 34.4 8.86797 34.4 10.9961V14.2211C36.0469 14.7898 37.3531 15.5336 38.4 16.4461V5.39609C38.4 4.07422 37.3219 2.99609 36 2.99609H4.00002ZM20 14.1961C4.72502 14.1961 -0.0124753 17.0211 2.46579e-05 24.5961H40C40.0125 16.9711 35.275 14.1961 20 14.1961ZM2.46579e-05 26.1961V34.9961H5.60002V31.7961C5.60002 30.6461 6.05002 30.1961 7.20002 30.1961H32.8C33.95 30.1961 34.4 30.6461 34.4 31.7961V34.9961H40V26.1961H2.46579e-05Z" fill="#1E1D1B"/>
</g>
<defs>
<clipPath id="clip0_3_11856">
<rect width="40" height="39" fill="white"/>
</clipPath>
</defs>
</svg>
