<svg width="32" height="34" viewBox="0 0 32 34" fill="none" xmlns="http://www.w3.org/2000/svg">
<path d="M24.9138 29.9035L27.9888 32.466V33.3201H4.07218V32.466L7.14718 29.9035H4.07218C3.16603 29.9035 2.29699 29.5435 1.65624 28.9028C1.01549 28.262 0.655518 27.393 0.655518 26.4868V7.69515C0.655518 5.88284 1.37546 4.14475 2.65695 2.86325C3.93845 1.58175 5.67654 0.861816 7.48885 0.861816H24.5722C26.3845 0.861816 28.1226 1.58175 29.4041 2.86325C30.6856 4.14475 31.4055 5.88284 31.4055 7.69515V26.4868C31.4055 27.393 31.0455 28.262 30.4048 28.9028C29.764 29.5435 28.895 29.9035 27.9888 29.9035H24.9138ZM4.07218 7.69515V14.5285H27.9888V7.69515H4.07218ZM16.0305 26.4868C16.9367 26.4868 17.8057 26.1268 18.4465 25.4861C19.0872 24.8453 19.4472 23.9763 19.4472 23.0701C19.4472 22.164 19.0872 21.295 18.4465 20.6542C17.8057 20.0135 16.9367 19.6535 16.0305 19.6535C15.1244 19.6535 14.2553 20.0135 13.6146 20.6542C12.9738 21.295 12.6138 22.164 12.6138 23.0701C12.6138 23.9763 12.9738 24.8453 13.6146 25.4861C14.2553 26.1268 15.1244 26.4868 16.0305 26.4868Z" fill="#F6F6F6"/>
</svg>
