<svg width="37" height="37" viewBox="0 0 37 37" fill="none" xmlns="http://www.w3.org/2000/svg">
<path d="M11.1344 10.8506H5.70944C4.75024 10.8506 3.83033 11.2316 3.15207 11.9099C2.47381 12.5881 2.09277 13.5081 2.09277 14.4672V34.3589C2.09277 34.8385 2.28329 35.2985 2.62242 35.6376C2.96155 35.9767 3.42151 36.1672 3.9011 36.1672H11.1344C11.614 36.1672 12.074 35.9767 12.4131 35.6376C12.7522 35.2985 12.9428 34.8385 12.9428 34.3589V12.6589C12.9428 12.1793 12.7522 11.7194 12.4131 11.3802C12.074 11.0411 11.614 10.8506 11.1344 10.8506Z" fill="url(#paint0_linear_1011_5)"/>
<path d="M34.6425 32.5505V10.3442C34.6432 9.58376 34.4041 8.84246 33.9594 8.22565C33.5146 7.60883 32.8868 7.1479 32.1651 6.90837L11.7128 0.090957C11.4409 0.00128467 11.1515 -0.0225242 10.8686 0.0214896C10.5856 0.0655035 10.3172 0.176082 10.0853 0.344124C9.85162 0.51052 9.66086 0.730135 9.52879 0.984828C9.39673 1.23952 9.32716 1.52198 9.32584 1.80887V32.5505H2.09251C1.61291 32.5505 1.15296 32.741 0.813828 33.0802C0.4747 33.4193 0.28418 33.8792 0.28418 34.3588C0.28418 34.8384 0.4747 35.2984 0.813828 35.6375C1.15296 35.9766 1.61291 36.1672 2.09251 36.1672H34.6425C35.1221 36.1672 35.582 35.9766 35.9212 35.6375C36.2603 35.2984 36.4508 34.8384 36.4508 34.3588C36.4508 33.8792 36.2603 33.4193 35.9212 33.0802C35.582 32.741 35.1221 32.5505 34.6425 32.5505Z" fill="#F6F6F6"/>
<path d="M24.6007 21.7007H17.3674C16.8878 21.7007 16.4279 21.8912 16.0887 22.2303C15.7496 22.5695 15.5591 23.0294 15.5591 23.509V32.5507H26.4091V23.509C26.4091 23.0294 26.2186 22.5695 25.8794 22.2303C25.5403 21.8912 25.0803 21.7007 24.6007 21.7007Z" fill="url(#paint1_linear_1011_5)"/>
<defs>
<linearGradient id="paint0_linear_1011_5" x1="7.51777" y1="10.8506" x2="7.51777" y2="36.1672" gradientUnits="userSpaceOnUse">
<stop stop-color="#1E1D1B"/>
<stop offset="1" stop-color="#0D57BD"/>
</linearGradient>
<linearGradient id="paint1_linear_1011_5" x1="20.9841" y1="21.7007" x2="20.9841" y2="32.5507" gradientUnits="userSpaceOnUse">
<stop stop-color="#1E1D1B"/>
<stop offset="1" stop-color="#0D57BD"/>
</linearGradient>
</defs>
</svg>
