<svg width="29" height="29" viewBox="0 0 29 29" fill="none" xmlns="http://www.w3.org/2000/svg">
<path d="M22.3279 22.1115C21.9628 20.9881 20.9096 20.1596 19.6598 20.1596H18.2556V15.9468C18.2556 15.5744 18.1076 15.2172 17.8443 14.9539C17.5809 14.6905 17.2238 14.5426 16.8513 14.5426H8.42579V11.7341H11.2343C11.6067 11.7341 11.9639 11.5861 12.2273 11.3228C12.4906 11.0594 12.6386 10.7022 12.6386 10.3298V7.52129H15.4471C16.1919 7.52129 16.9063 7.22539 17.433 6.69869C17.9597 6.17199 18.2556 5.45764 18.2556 4.71277V4.13703C19.9357 4.81439 21.4267 5.8888 22.601 7.26829C23.7752 8.64777 24.5976 10.2913 24.9979 12.058C25.3982 13.8248 25.3644 15.6623 24.8994 17.4132C24.4344 19.164 23.5521 20.7761 22.3279 22.1115ZM12.6386 25.6783C7.09174 24.9902 2.80876 20.2719 2.80876 14.5426C2.80876 13.6719 2.9211 12.8294 3.10365 12.029L9.83004 18.7553V20.1596C9.83004 20.9045 10.1259 21.6188 10.6526 22.1455C11.1793 22.6722 11.8937 22.9681 12.6386 22.9681M14.0428 0.5C12.1987 0.5 10.3727 0.863222 8.66896 1.56893C6.96523 2.27463 5.41719 3.309 4.11322 4.61297C1.47973 7.24647 0.000244141 10.8182 0.000244141 14.5426C0.000244141 18.2669 1.47973 21.8387 4.11322 24.4722C5.41719 25.7761 6.96523 26.8105 8.66896 27.5162C10.3727 28.2219 12.1987 28.5851 14.0428 28.5851C17.7671 28.5851 21.3389 27.1057 23.9724 24.4722C26.6059 21.8387 28.0854 18.2669 28.0854 14.5426C28.0854 12.6985 27.7222 10.8724 27.0165 9.16871C26.3108 7.46499 25.2764 5.91695 23.9724 4.61297C22.6684 3.309 21.1204 2.27463 19.4167 1.56893C17.713 0.863222 15.8869 0.5 14.0428 0.5Z" fill="url(#paint0_linear_410_1176)"/>
<defs>
<linearGradient id="paint0_linear_410_1176" x1="14.0428" y1="0.5" x2="34.0208" y2="43.7021" gradientUnits="userSpaceOnUse">
<stop stop-color="white"/>
<stop offset="1" stop-color="white" stop-opacity="0"/>
</linearGradient>
</defs>
</svg>
