<svg width="50" height="33" viewBox="0 0 50 33" fill="none" xmlns="http://www.w3.org/2000/svg">
<path fill-rule="evenodd" clip-rule="evenodd" d="M34.6484 20.9346H43.7107C45.2054 20.9346 46.6389 20.3334 47.6958 19.2632C48.7527 18.193 49.3464 16.7415 49.3464 15.2281C49.3464 13.7146 48.7527 12.2631 47.6958 11.193C46.6389 10.1228 45.2054 9.52155 43.7107 9.52155H12.4166C11.998 9.52132 11.5878 9.40312 11.2319 9.18018C10.8759 8.95724 10.5883 8.63836 10.4012 8.25926L9.39131 6.21861C9.20422 5.83952 8.9166 5.52064 8.56066 5.2977C8.20472 5.07476 7.7945 4.95656 7.37597 4.95633H3.17171C2.79847 4.95599 2.431 5.0495 2.10226 5.22845C1.77352 5.4074 1.49381 5.6662 1.28822 5.98162C1.08263 6.29704 0.957609 6.65921 0.924365 7.03563C0.891122 7.41205 0.950701 7.79094 1.09776 8.13829L5.92871 19.5513C6.10265 19.9622 6.39192 20.3123 6.76061 20.5582C7.12929 20.8041 7.56118 20.935 8.00266 20.9346H16.711C17.0792 20.9348 17.4417 21.0264 17.7669 21.2012C18.0921 21.3761 18.37 21.629 18.5764 21.9377C18.7828 22.2464 18.9114 22.6017 18.9509 22.9723C18.9904 23.343 18.9396 23.7178 18.803 24.064L16.7719 29.2205C16.6358 29.5664 16.5854 29.9407 16.625 30.3109C16.6646 30.6811 16.7931 31.0358 16.9991 31.3442C17.2052 31.6526 17.4827 31.9053 17.8073 32.0801C18.1319 32.255 18.4939 32.3469 18.8616 32.3476H23.4649C23.8029 32.3478 24.1367 32.2709 24.4415 32.1227C24.7462 31.9746 25.0142 31.7589 25.2255 31.4917L32.8901 21.7906C33.1011 21.5236 33.3687 21.3082 33.6731 21.16C33.9774 21.0118 34.3107 20.9348 34.6484 20.9346ZM18.803 7.03563L28.7861 7.69546L25.2255 1.30416C25.0155 1.02067 24.7432 0.790571 24.4302 0.632094C24.1172 0.473618 23.772 0.391113 23.422 0.391113H19.1795C18.7953 0.391321 18.4177 0.490907 18.0822 0.680421C17.7468 0.869935 17.4648 1.14309 17.2629 1.47397C17.061 1.80485 16.9459 2.18248 16.9287 2.57102C16.9114 2.95956 16.9924 3.34613 17.1641 3.69405L18.803 7.03563Z" fill="url(#paint0_linear_410_1182)"/>
<defs>
<linearGradient id="paint0_linear_410_1182" x1="31.5275" y1="27.7824" x2="49.3259" y2="0.377765" gradientUnits="userSpaceOnUse">
<stop offset="0.238952" stop-color="#F6F6F6"/>
<stop offset="0.926111" stop-color="#1056B9"/>
</linearGradient>
</defs>
</svg>
