<svg width="26" height="26" viewBox="0 0 26 26" fill="none" xmlns="http://www.w3.org/2000/svg">
<path d="M17 13C17 15.2092 15.2092 17 13 17C10.7908 17 9 15.2092 9 13C9 10.7908 10.7908 9 13 9C15.2092 9 17 10.7908 17 13Z" stroke="#083E92" stroke-width="2.66667" stroke-linecap="round" stroke-linejoin="round"/>
<path d="M14.2061 1.08007C13.9317 1 13.6212 1 13 1C12.3788 1 12.0683 1 11.7939 1.08007C11.3923 1.19725 11.0375 1.43744 10.7795 1.76681C10.6032 1.99184 10.4879 2.28021 10.2572 2.85696C9.92559 3.68603 9.00524 4.11295 8.15809 3.83067L7.39705 3.57708C6.8572 3.39713 6.58727 3.30715 6.32261 3.29173C5.93385 3.26908 5.54693 3.36043 5.20935 3.55453C4.97953 3.68668 4.77835 3.88788 4.37596 4.29027C3.94829 4.71793 3.73445 4.93176 3.59861 5.17585C3.39903 5.53445 3.3146 5.94579 3.35679 6.35401C3.38549 6.63187 3.4978 6.91265 3.72243 7.47421C4.0742 8.35364 3.73579 9.35837 2.92363 9.84577L2.55361 10.0678C1.98708 10.4077 1.70381 10.5777 1.49805 10.8117C1.31597 11.0188 1.17868 11.2613 1.09479 11.524C1 11.8208 1 12.1544 1 12.8217C1 13.6119 1 14.0068 1.12616 14.3451C1.23764 14.6439 1.41896 14.9116 1.65499 15.1261C1.92211 15.3688 2.28527 15.5141 3.01155 15.8047C3.75379 16.1015 4.13595 16.9255 3.88315 17.6839L3.59628 18.5445C3.39759 19.1405 3.29823 19.4387 3.2892 19.7315C3.27833 20.0836 3.36065 20.4323 3.52783 20.7423C3.66687 21.0003 3.88904 21.2224 4.33333 21.6667C4.77764 22.1109 4.9998 22.3331 5.25767 22.4721C5.56773 22.6393 5.91644 22.7217 6.26853 22.7108C6.56136 22.7017 6.85941 22.6024 7.45552 22.4037L8.15816 22.1695C9.00524 21.8872 9.9256 22.314 10.2572 23.1431C10.4879 23.7197 10.6032 24.0081 10.7795 24.2332C11.0375 24.5625 11.3923 24.8028 11.7939 24.92C12.0683 25 12.3788 25 13 25C13.6212 25 13.9317 25 14.2061 24.92C14.6077 24.8028 14.9625 24.5625 15.2205 24.2332C15.3968 24.0081 15.5121 23.7197 15.7428 23.1431C16.0744 22.314 16.9948 21.8872 17.8417 22.1697L18.5439 22.4039C19.14 22.6025 19.4381 22.7019 19.7309 22.7109C20.0831 22.7217 20.4317 22.6395 20.7417 22.4723C20.9996 22.3332 21.2219 22.1111 21.6661 21.6668C22.1104 21.2225 22.3325 21.0003 22.4716 20.7424C22.6388 20.4324 22.7211 20.0836 22.7103 19.7316C22.7012 19.4388 22.6019 19.1407 22.4032 18.5445L22.1165 17.6845C21.8636 16.9259 22.2459 16.1016 22.9884 15.8047C23.7147 15.5141 24.0779 15.3688 24.3451 15.1261C24.5811 14.9116 24.7624 14.6439 24.8739 14.3451C25 14.0068 25 13.6119 25 12.8217C25 12.1544 25 11.8208 24.9052 11.524C24.8213 11.2613 24.684 11.0188 24.502 10.8117C24.2961 10.5777 24.0129 10.4077 23.4464 10.0678L23.0759 9.84555C22.2637 9.35823 21.9252 8.35352 22.2771 7.47411C22.5016 6.91257 22.614 6.63177 22.6427 6.35391C22.6848 5.94568 22.6004 5.53436 22.4008 5.17575C22.2649 4.93167 22.0512 4.71783 21.6235 4.29016C21.2211 3.88779 21.0199 3.68659 20.7901 3.55444C20.4525 3.36032 20.0656 3.26899 19.6768 3.29163C19.4121 3.30705 19.1423 3.39703 18.6024 3.57697L17.8419 3.83049C16.9948 4.11285 16.0744 3.686 15.7428 2.85696C15.5121 2.28021 15.3968 1.99184 15.2205 1.76681C14.9625 1.43744 14.6077 1.19725 14.2061 1.08007Z" stroke="#083E92" stroke-width="1.90476" stroke-linecap="round" stroke-linejoin="round"/>
</svg>
