<svg width="31" height="31" viewBox="0 0 31 31" fill="none" xmlns="http://www.w3.org/2000/svg">
<path fill-rule="evenodd" clip-rule="evenodd" d="M20.0943 1.82695C21.1032 0.8181 22.7389 0.8181 23.7478 1.82695L29.2278 7.30703C30.2367 8.31588 30.2367 9.95156 29.2278 10.9604L10.9609 29.2273C9.95205 30.2362 8.31637 30.2362 7.30752 29.2273L1.82744 23.7473C0.818587 22.7384 0.818589 21.1027 1.82744 20.0938L20.0943 1.82695ZM21.0077 4.56699C21.5122 4.06257 22.3299 4.06257 22.8345 4.56699L26.4878 8.22038C26.9922 8.72481 26.9922 9.54264 26.4878 10.0471L25.5745 9.13373C25.0701 8.62929 24.2522 8.62929 23.7478 9.13373C23.2433 9.63815 23.2433 10.456 23.7478 10.9604L24.6611 11.8738L22.8345 13.7005L20.0943 10.9604C19.5899 10.456 18.772 10.456 18.2676 10.9604C17.7632 11.4649 17.7632 12.2827 18.2676 12.7871L21.0077 15.5271L19.181 17.3538L18.2676 16.4405C17.7632 15.9361 16.9454 15.9361 16.441 16.4405C15.9366 16.9449 15.9366 17.7627 16.441 18.2671L17.3543 19.1805L15.5276 21.0073L12.7876 18.2671C12.2832 17.7627 11.4653 17.7627 10.9609 18.2671C10.4565 18.7717 10.4565 19.5894 10.9609 20.0938L13.701 22.834L11.8743 24.6606L10.9609 23.7473C10.4565 23.2429 9.63864 23.2429 9.13422 23.7473C8.62978 24.2517 8.62978 25.0696 9.13422 25.574L10.0476 26.4873C9.54313 26.9917 8.72529 26.9917 8.22087 26.4873L4.56748 22.834C4.06306 22.3294 4.06306 21.5117 4.56748 21.0073L21.0077 4.56699Z" fill="#003B95"/>
</svg>
