<svg width="16" height="17" viewBox="0 0 16 17" fill="none" xmlns="http://www.w3.org/2000/svg">
<path d="M12.7266 3.51285L12.0558 13.5751C11.9971 14.4563 11.9677 14.897 11.7774 15.2311C11.6098 15.5253 11.357 15.7617 11.0523 15.9094C10.7063 16.0771 10.2646 16.0771 9.38136 16.0771H6.02048C5.13722 16.0771 4.69558 16.0771 4.34954 15.9094C4.04488 15.7617 3.7921 15.5253 3.62452 15.2311C3.43417 14.897 3.4048 14.4563 3.34605 13.5751L2.67523 3.51285M1 3.51285H14.4019M11.0514 3.51285L10.8247 2.83276C10.605 2.17371 10.4951 1.84418 10.2914 1.60055C10.1115 1.38541 9.8805 1.21889 9.61949 1.11624C9.3239 1 8.97662 1 8.28191 1H7.11999C6.42529 1 6.07793 1 5.78238 1.11624C5.52139 1.21889 5.29034 1.38541 5.11043 1.60055C4.90669 1.84418 4.79685 2.17371 4.57716 2.83276L4.35047 3.51285M9.37617 6.86332V12.7266M6.0257 6.86332L6.02566 12.7265" stroke="#003B95" stroke-width="1.5" stroke-linecap="round" stroke-linejoin="round"/>
</svg>
