<svg width="32" height="32" viewBox="0 0 32 32" fill="none" xmlns="http://www.w3.org/2000/svg">
<path d="M12.2295 19.1402C12.7448 18.5875 13.368 18.1463 14.0604 17.8437C14.7528 17.5413 15.5004 17.3841 16.2561 17.3814C17.0117 17.3788 17.7598 17.531 18.4543 17.8287C19.1489 18.1264 19.7752 18.5631 20.2944 19.1122M9.80308 15.7705C10.6276 14.8863 11.6246 14.1805 12.7325 13.6964C13.8404 13.2124 15.0356 12.9606 16.2445 12.9564C17.4535 12.9522 18.65 13.1958 19.7613 13.6721C20.8725 14.1484 21.8749 14.8473 22.7057 15.7258M6.56641 12.7531C7.80323 11.4268 9.29869 10.368 10.9605 9.64192C12.6224 8.91588 14.4145 8.53767 16.228 8.53133C18.0416 8.525 19.8384 8.89048 21.5053 9.6049C23.1722 10.3193 24.6753 11.3683 25.9214 12.686M16.2753 24.019C15.6644 24.019 15.1691 23.5237 15.1691 22.9127C15.1691 22.3017 15.6644 21.8065 16.2753 21.8065C16.8863 21.8065 17.3816 22.3017 17.3816 22.9127C17.3816 23.5237 16.8863 24.019 16.2753 24.019Z" stroke="#1E1D1B" stroke-width="1.90358" stroke-linecap="round" stroke-linejoin="round"/>
</svg>
