<svg width="24" height="24" viewBox="0 0 24 24" fill="none" xmlns="http://www.w3.org/2000/svg">
<path d="M4.60803 20.1827L9.74565 15.0689L11.4152 17.1754L6.70946 21.9593C5.47704 23.5084 3.19654 21.876 4.60803 20.1827ZM10.3583 9.47691C10.7059 8.35505 10.5462 7.39643 9.24004 5.9724L6.04839 2.17439C5.59545 1.6482 4.52806 2.421 4.97397 3.05834L7.52659 6.16864C8.00938 6.74867 7.11227 7.51626 6.61369 6.91886L3.97329 3.70263C3.48173 3.14517 2.46525 3.8815 2.97963 4.51884C3.724 5.40452 4.87566 6.85113 5.62003 7.73681C6.13617 8.25606 5.35143 9.02539 4.84231 8.37763L2.22122 5.18223C1.83675 4.76892 1.20825 5.02594 1.04147 5.50872C0.862403 6.0245 1.30305 6.40135 1.60326 6.7834L4.52806 10.5206C5.43569 11.5609 6.45042 12.1774 7.63017 11.8283C7.81099 11.7745 8.0322 11.6651 8.2692 11.5209L16.8711 22.291C17.2942 22.8311 18.1105 22.8884 18.6407 22.4525L18.7618 22.3535C19.3587 21.8621 19.4553 20.9642 18.9444 20.3842L9.87907 10.1907C10.1213 9.92323 10.2987 9.66968 10.3583 9.47691ZM12.5827 11.6651L13.8765 10.1125C12.2122 6.03144 18.3796 0.592327 21.3694 3.09307C25.0016 6.13391 19.6032 13.4625 15.8094 11.6512L14.2768 13.5771L12.5827 11.6651Z" fill="#1E1D1B"/>
</svg>
