<svg width="32" height="32" viewBox="0 0 32 32" fill="none" xmlns="http://www.w3.org/2000/svg">
<path d="M8.84826 24.3312L13.9859 19.2173L15.6554 21.3238L10.9497 26.1078C9.71727 27.6568 7.43677 26.0244 8.84826 24.3312ZM14.5986 13.6254C14.9462 12.5035 14.7864 11.5449 13.4803 10.1208L10.2886 6.32283C9.83569 5.79663 8.76829 6.56943 9.21421 7.20678L11.7668 10.3171C12.2496 10.8971 11.3525 11.6647 10.8539 11.0673L8.21353 7.85106C7.72197 7.29361 6.70548 8.02994 7.21987 8.66728C7.96424 9.55296 9.1159 10.9996 9.86026 11.8853C10.3764 12.4045 9.59166 13.1738 9.08254 12.5261L6.46146 9.33067C6.07699 8.91735 5.44849 9.17438 5.28171 9.65716C5.10264 10.1729 5.54329 10.5498 5.84349 10.9318L8.76829 14.6691C9.67593 15.7093 10.6907 16.3258 11.8704 15.9767C12.0512 15.9229 12.2724 15.8135 12.5094 15.6694L21.1113 26.4394C21.5344 26.9795 22.3507 27.0368 22.8809 26.601L23.0021 26.502C23.599 26.0105 23.6955 25.1127 23.1846 24.5326L14.1193 14.3391C14.3616 14.0717 14.5389 13.8181 14.5986 13.6254ZM16.8229 15.8135L18.1168 14.261C16.4525 10.1799 22.6198 4.74076 25.6096 7.24151C29.2419 10.2823 23.8435 17.6109 20.0497 15.7996L18.517 17.7255L16.8229 15.8135Z" fill="#1E1D1B"/>
</svg>
