<svg width="19" height="18" viewBox="0 0 19 18" fill="none" xmlns="http://www.w3.org/2000/svg">
<path d="M16.7842 2.07888H14.5488V1.18464C14.5488 0.652821 14.1136 0.217773 13.5817 0.217773C13.0499 0.217773 12.615 0.652821 12.615 1.18464V2.07888H6.29776V1.18464C6.29776 0.652821 5.86272 0.217773 5.3309 0.217773C4.79908 0.217773 4.36404 0.652821 4.36404 1.18464V2.07888H2.12859C1.21334 2.07888 0.468628 2.82342 0.468628 3.73868V15.9997C0.468628 16.915 1.21317 17.6595 2.12859 17.6595H15.3011C17.0343 17.6595 18.444 16.2498 18.444 14.5166V3.73868C18.444 2.82342 17.6995 2.07888 16.7842 2.07888ZM2.12859 3.40222H4.36519C4.37793 3.92312 4.80702 4.34543 5.3309 4.34543C5.85461 4.34543 6.28354 3.92312 6.29644 3.40222H12.6162C12.6291 3.92312 13.0579 4.34543 13.5817 4.34543C14.1056 4.34543 14.5347 3.92312 14.5476 3.40222H16.7842C16.9668 3.40222 17.1207 3.55639 17.1207 3.73868V6.32316H1.79197V3.73868C1.79197 3.55622 1.94613 3.40222 2.12859 3.40222ZM1.79197 15.9997V7.62582H17.1207V13.4257H14.4166L14.3968 16.3362H2.12859C1.94613 16.3362 1.79197 16.182 1.79197 15.9997ZM15.7206 16.2854L15.7312 14.749H17.104C17.0072 15.503 16.4484 16.1127 15.7206 16.2854Z" fill="#1E1D1B"/>
</svg>
