<svg width="32" height="32" viewBox="0 0 32 32" fill="none" xmlns="http://www.w3.org/2000/svg">
<path d="M24.8337 18.6253C25.409 18.6253 25.8753 18.159 25.8753 17.5837C25.8753 17.0083 25.409 16.542 24.8337 16.542C24.2583 16.542 23.792 17.0083 23.792 17.5837C23.792 18.159 24.2583 18.6253 24.8337 18.6253Z" fill="#1E1D1B"/>
<path fill-rule="evenodd" clip-rule="evenodd" d="M21.4743 4.0263C23.2627 3.47983 25.1275 4.61597 25.4621 6.45589L25.8089 8.36335C27.0572 8.77302 27.9587 9.94783 27.9587 11.3332V14.2122C28.5979 14.7844 29.0003 15.616 29.0003 16.5415V18.6248C29.0003 19.5504 28.5979 20.3819 27.9587 20.9541V23.8332C27.9587 25.5591 26.5596 26.9582 24.8337 26.9582H8.16699C6.44111 26.9582 5.04199 25.5591 5.04199 23.8332V11.3332C5.04199 9.78431 6.1688 8.49864 7.64739 8.25118L21.4743 4.0263ZM25.8753 19.6665C26.4506 19.6665 26.917 19.2002 26.917 18.6248V16.5415C26.917 15.9662 26.4506 15.4998 25.8753 15.4998H22.7503C22.175 15.4998 21.7087 15.9662 21.7087 16.5415V18.6248C21.7087 19.2002 22.175 19.6665 22.7503 19.6665H25.8753ZM25.8753 21.7498V23.8332C25.8753 24.4085 25.409 24.8748 24.8337 24.8748H8.16699C7.5917 24.8748 7.12533 24.4085 7.12533 23.8332V11.3332C7.12533 10.7579 7.5917 10.2915 8.16699 10.2915H24.8337C25.4066 10.2915 25.8714 10.754 25.8753 11.3259V13.4165H22.7503C21.0244 13.4165 19.6253 14.8156 19.6253 16.5415V18.6248C19.6253 20.3508 21.0244 21.7498 22.7503 21.7498H25.8753ZM23.4747 6.75719L23.7307 8.20818H14.417L22.1495 5.94048C22.7467 5.76135 23.3664 6.14327 23.4747 6.75719Z" fill="#1E1D1B"/>
</svg>
