<svg width="25" height="27" viewBox="0 0 25 27" fill="none" xmlns="http://www.w3.org/2000/svg">
<path d="M6.40959 0.517853C3.28476 0.517853 0.714355 2.67754 0.714355 5.80238V20.6976C0.714355 23.8225 3.28476 26.3929 6.40959 26.3929H13.9263C16.829 26.3929 18.4557 24.1746 18.7858 21.3548H16.023C15.7551 22.2599 14.9395 23.9286 13.9263 23.9286H6.40959C5.16576 23.9286 3.17864 21.9414 3.17864 20.6976V5.80238C3.17864 4.55855 5.16576 3.6119 6.40959 3.6119H13.9263C14.9395 3.6119 15.7551 4.24012 16.023 5.14523H18.7858C18.4557 2.32535 16.829 0.517853 13.9263 0.517853H6.40959Z" fill="#083E92"/>
<path d="M19.9234 9.14285C19.7477 9.14284 19.5736 9.17746 19.4112 9.24472C19.2488 9.31198 19.1013 9.41056 18.977 9.53485C18.8527 9.65914 18.7541 9.80669 18.6868 9.96909C18.6195 10.1315 18.5849 10.3055 18.5849 10.4813C18.5849 10.6571 18.6195 10.8311 18.6868 10.9935C18.7541 11.1559 18.8527 11.3035 18.977 11.4278L19.369 11.8198H9.44539C9.09041 11.8198 8.74997 11.9608 8.49896 12.2118C8.24795 12.4628 8.10693 12.8033 8.10693 13.1582C8.10693 13.5132 8.24795 13.8537 8.49896 14.1047C8.74997 14.3557 9.09041 14.4967 9.44539 14.4967H19.369L18.977 14.8887C18.8527 15.013 18.7541 15.1605 18.6868 15.3229C18.6195 15.4853 18.5849 15.6594 18.5849 15.8352C18.5849 16.0109 18.6195 16.185 18.6868 16.3474C18.7541 16.5098 18.8527 16.6573 18.977 16.7816C19.1013 16.9059 19.2488 17.0045 19.4112 17.0718C19.5736 17.1391 19.7477 17.1737 19.9234 17.1737C20.0992 17.1737 20.2733 17.1391 20.4357 17.0718C20.598 17.0045 20.7456 16.9059 20.8699 16.7816L23.3056 14.3459C23.5262 14.2352 23.7118 14.0657 23.8421 13.8561C23.9724 13.6466 24.0422 13.405 24.0438 13.1582C24.0435 12.9077 23.9728 12.6622 23.8399 12.4498C23.707 12.2374 23.5171 12.0666 23.2919 11.9568L20.8699 9.53485C20.7456 9.41056 20.598 9.31198 20.4356 9.24472C20.2733 9.17746 20.0992 9.14284 19.9234 9.14285Z" fill="#083E92"/>
</svg>
