<svg width="24" height="24" viewBox="0 0 24 24" fill="none" xmlns="http://www.w3.org/2000/svg">
<path d="M11.6752 19.5914L11.5596 19.7174L11.4324 19.5914C5.94162 14.1613 2.31191 10.5705 2.31191 6.92944C2.31191 4.40965 4.04585 2.5198 6.35776 2.5198C8.13794 2.5198 9.87187 3.7797 10.4845 5.49316H12.6346C13.2473 3.7797 14.9812 2.5198 16.7614 2.5198C19.0733 2.5198 20.8072 4.40965 20.8072 6.92944C20.8072 10.5705 17.1775 14.1613 11.6752 19.5914ZM16.7614 0C14.75 0 12.8196 1.02052 11.5596 2.62059C10.2996 1.02052 8.36913 0 6.35776 0C2.79742 0 0 3.03636 0 6.92944C0 11.6793 3.93025 15.5723 9.88343 21.4561L11.5596 23.1191L13.2357 21.4561C19.1889 15.5723 23.1191 11.6793 23.1191 6.92944C23.1191 3.03636 20.3217 0 16.7614 0Z" fill="#003B95"/>
<rect x="1.34082" y="3.47656" width="20.0171" height="10.279" rx="3.78702" fill="#003B95"/>
<rect x="6.75049" y="4.0166" width="9.73804" height="15.6891" rx="3.78702" fill="#003B95"/>
<rect x="1.88135" y="2.39453" width="9.73804" height="9.73804" rx="3.78702" fill="#003B95"/>
<rect x="12.1606" y="2.39453" width="9.73804" height="9.73804" rx="3.78702" fill="#003B95"/>
<rect x="18.1055" y="6.72266" width="9.73804" height="13.5251" rx="3.78702" transform="rotate(88.278 18.1055 6.72266)" fill="#003B95"/>
</svg>
