<svg width="113" height="49" viewBox="0 0 113 49" fill="none" xmlns="http://www.w3.org/2000/svg">
<path d="M10.3768 39.5944L0 39.5794V36.0732C0 35.2592 0.146937 34.5937 0.44081 34.0769C0.731305 33.5567 1.12483 33.1717 1.62137 32.9217C2.11791 32.6717 2.67188 32.5468 3.28327 32.5468C3.89467 32.5468 4.45032 32.6717 4.95024 32.9217C5.45017 33.1683 5.84875 33.55 6.146 34.0668C6.43988 34.5836 6.58681 35.2457 6.58681 36.053V38.5661H5.47212V36.0935C5.47212 35.5362 5.37585 35.0886 5.18332 34.7508C4.99078 34.413 4.73068 34.1681 4.40303 34.0161C4.072 33.8607 3.69875 33.783 3.28327 33.783C2.8678 33.783 2.49623 33.8607 2.16858 34.0161C1.84093 34.1681 1.58421 34.4147 1.39843 34.7559C1.20927 35.097 1.11469 35.5497 1.11469 36.1138V38.3229H10.3768V39.5944Z" fill="#86B3F3"/>
<path d="M10.3768 31.1559V32.4733L0 28.6631V27.366L10.3768 23.5558V24.8731L1.64164 27.974V28.0551L10.3768 31.1559ZM6.32334 30.6695V25.3595H7.43803V30.6695H6.32334Z" fill="#86B3F3"/>
<path d="M0 23.8902V22.4512L4.84384 19.5733V19.4517L0 16.5737V15.1348L6.1004 18.8842H10.3768V20.1407H6.1004L0 23.8902Z" fill="#86B3F3"/>
<mask id="mask0_411_4045" style="mask-type:alpha" maskUnits="userSpaceOnUse" x="24" y="9" width="33" height="33">
<circle cx="40.6072" cy="25.5051" r="15.8826" fill="#D9D9D9"/>
</mask>
<g mask="url(#mask0_411_4045)">
<circle cx="40.6174" cy="25.4636" r="15.8826" fill="#D9D9D9"/>
<path d="M57.2791 29.5733C57.2791 29.5733 57.6998 44.8502 41.5816 42.7532C36.7188 42.1206 31.8485 40.4003 29.2577 38.0819C26.8173 35.8981 26.208 33.0879 26.208 33.0879L26.4989 32.1683L26.208 30.4544L26.4989 29.3845L42.4957 27.4524L44.3862 26.2163L49.4346 25.4995C50.8196 25.7177 53.6374 26.1664 53.8285 26.2163C54.0197 26.2661 55.2862 27.4212 55.8957 27.9925L57.2791 29.5733Z" fill="#003B95"/>
<path d="M56.3885 28.8368C56.5232 28.9566 56.585 29.0328 56.585 29.0328L56.3885 28.9946V28.8368C56.0347 28.522 55.1771 27.9065 53.6122 27.583C51.4515 27.1363 48.865 27.583 47.7536 28.5594C46.6421 29.5359 45.4164 31.7484 42.6637 33.4312C39.911 35.114 36.2367 31.6793 35.2706 31.243C34.3046 30.8068 32.7521 30.5826 31.9541 30.4811C31.0047 30.3604 29.5234 30.7927 29.5234 30.7927C28.1938 31.1667 26.5006 32.8079 26.5006 32.8079C26.5006 32.8079 25.3649 31.8092 24.9652 30.7095C24.837 30.3569 24.7159 29.9938 24.6373 29.65C24.6071 29.518 24.5941 29.3889 24.5738 29.2642C24.5733 29.2612 24.5728 29.2583 24.5723 29.2553C24.5641 29.2061 24.5339 29.1576 24.5217 29.1099C24.5213 29.1081 24.5211 29.1064 24.521 29.1047L24.5157 29.0683L24.4833 28.9012C24.08 27.3515 24.7347 24.9134 24.7347 24.9134C26.7603 23.795 30.8967 21.5581 31.2374 21.5581H34.416H43.2142L52.2306 21.9424H54.3601L56.4895 26.2118L56.3885 28.3947V28.8368Z" fill="#2D6ECB"/>
<path d="M24.4629 24.9135C24.7376 22.195 25.1751 20.7234 26.208 18.255L32.7124 13.2585L38.197 12.2925L48.1067 15.1179L55.0936 18.219C55.1688 18.4665 55.6363 19.2811 55.7039 19.5119C55.8637 19.9169 55.9511 20.2197 56.0682 20.5506C56.7262 22.4106 56.5992 23.8995 56.4779 26.1879C56.4779 26.1879 54.9577 24.8309 53.8614 24.1759C51.8195 22.9561 50.8891 22.2484 48.4553 21.8976C45.7537 21.5081 44.6721 22.1977 42.1383 23.213C39.6128 24.2249 38.0318 26.3683 35.4547 27.2403C32.9295 28.0947 31.1849 28.4407 28.6404 27.6454C26.7512 27.0549 24.4629 24.9135 24.4629 24.9135Z" fill="#86B3F3"/>
<path d="M33.1278 16.3643C35.8182 16.6316 42.2065 21.3192 47.6184 21.3192C50.3479 21.3192 51.9393 20.4815 52.9784 19.6156C53.1654 19.4598 53.3698 19.3229 53.5705 19.1689C53.8412 18.9614 54.5304 18.2485 54.757 18.2187C55.2765 17.5714 55.0314 17.687 54.9559 17.3469C54.8061 16.6728 52.8485 14.3017 49.7225 11.9384C47.646 10.3684 45.0659 9.8432 42.1857 9.68511C40.9897 9.61947 39.8641 9.64147 38.7994 9.74573C34.496 10.1672 31.1196 11.6452 28.2972 15.1137C27.5559 16.0247 27.1946 17.0731 26.459 18.2756C29.527 16.4116 30.4374 16.097 33.1278 16.3643Z" fill="#E8E8E7"/>
</g>
<path d="M1.11621 12.8145V9.66211H23.1257V12.8145H13.8977V39.5944H10.3441V12.8145H1.11621Z" fill="white"/>
<path d="M80.9227 9.65407H84.4763V29.0843C84.4763 31.0904 84.0035 32.8815 83.0577 34.4577C82.1216 36.0243 80.7985 37.2614 79.0886 38.1689C77.3787 39.0669 75.3726 39.5158 73.0704 39.5158C70.7682 39.5158 68.7621 39.0669 67.0522 38.1689C65.3422 37.2614 64.0144 36.0243 63.0687 34.4577C62.1325 32.8815 61.6644 31.0904 61.6644 29.0843V9.65407H65.2181V28.7977C65.2181 30.2306 65.5333 31.5059 66.1638 32.6236C66.7943 33.7317 67.6922 34.6058 68.8576 35.2458C70.0326 35.8763 71.4369 36.1915 73.0704 36.1915C74.7039 36.1915 76.1081 35.8763 77.2831 35.2458C78.4581 34.6058 79.3561 33.7317 79.977 32.6236C80.6075 31.5059 80.9227 30.2306 80.9227 28.7977V9.65407Z" fill="white"/>
<path d="M90.981 39.6287V9.62744H100.897C103.189 9.62744 105.071 10.0191 106.542 10.8024C108.013 11.5762 109.102 12.6413 109.809 13.9978C110.516 15.3543 110.87 16.8971 110.87 18.6261C110.87 20.3551 110.516 21.8883 109.809 23.2257C109.102 24.5631 108.018 25.6139 106.557 26.3781C105.095 27.1328 103.228 27.5101 100.954 27.5101H92.9297V24.3004H100.839C102.406 24.3004 103.667 24.0711 104.622 23.6126C105.587 23.1541 106.284 22.5045 106.714 21.6639C107.154 20.8137 107.373 19.8011 107.373 18.6261C107.373 17.4511 107.154 16.4242 106.714 15.5453C106.275 14.6665 105.573 13.9883 104.608 13.5106C103.643 13.0234 102.368 12.7798 100.782 12.7798H94.5346V39.6287H90.981ZM104.794 25.7906L112.292 39.5942H108.165L100.782 25.7906H104.794Z" fill="white"/>
</svg>
