<svg width="39" height="39" viewBox="0 0 39 39" fill="none" xmlns="http://www.w3.org/2000/svg">
<path d="M21.3653 32.097C21.0414 32.3607 20.7158 32.5678 20.3881 32.7243C20.1656 32.7481 19.9415 32.7655 19.7164 32.7787V30.1673C19.1778 29.7265 18.6362 29.2688 18.0928 28.7985V32.7792C17.8677 32.7655 17.6436 32.748 17.4216 32.7242C17.0939 32.5678 16.7678 32.3606 16.4439 32.0969C15.3879 31.2375 14.3996 29.7868 13.6417 27.9196H17.0929C16.5046 27.3937 15.9159 26.852 15.3271 26.2961H13.0741C12.805 25.4012 12.5885 24.4362 12.4235 23.4241C11.7824 22.7608 11.1598 22.0959 10.5552 21.4322C10.691 23.1604 10.9695 24.7998 11.3844 26.2961H7.23723C6.07607 24.4193 5.35625 22.244 5.21987 19.9069H9.20112C8.73074 19.3636 8.27301 18.8219 7.83277 18.2833H5.21994C5.27593 17.3257 5.43507 16.3976 5.67658 15.5038C5.12533 14.7518 4.6084 14.0109 4.13173 13.2852C3.42298 15.0853 3.0293 17.044 3.0293 19.0956C3.02978 27.8635 10.1361 34.9694 18.9041 34.9699C20.9552 34.9699 22.9139 34.5762 24.7134 33.868C23.7468 33.2322 22.7521 32.5256 21.7406 31.7598C21.6163 31.8797 21.4917 31.994 21.3653 32.097ZM9.20967 28.7902C8.93165 28.5121 8.66737 28.2204 8.41424 27.9197H11.9114C12.1719 28.63 12.4584 29.3065 12.7791 29.928C13.157 30.6584 13.5756 31.3227 14.0328 31.9115C12.2073 31.2175 10.5679 30.1474 9.20967 28.7902Z" fill="#1E1D1B"/>
<path d="M7.36133 8.20191C7.70805 8.82289 8.10228 9.46984 8.53622 10.1362C8.75292 9.88465 8.97276 9.63623 9.20792 9.40107C10.5688 8.0412 12.212 6.96885 14.0416 6.27493C13.1912 7.36684 12.4762 8.72138 11.907 10.271H8.62242C8.9701 10.8005 9.34484 11.3428 9.74174 11.8946H11.387C11.2374 12.4331 11.109 12.9934 10.9933 13.5662C11.4282 14.1254 11.8833 14.6909 12.3568 15.2606C12.5276 14.0672 12.7675 12.9335 13.0804 11.8945H18.0912V18.2836H15.0068C15.5084 18.8264 16.022 19.3681 16.5479 19.9072H18.0912V21.4505C18.6302 21.9758 19.172 22.4906 19.7148 22.9916V19.9072H25.7134C25.6468 22.2379 25.2932 24.4133 24.7261 26.2964H23.5375C24.3176 26.9247 25.0876 27.5162 25.8408 28.0652C25.8593 28.0155 25.8809 27.9701 25.8994 27.9199H29.3934C29.1397 28.2206 28.876 28.5124 28.598 28.7904C28.3633 29.025 28.117 29.2481 27.8654 29.4647C28.5309 29.8981 29.1767 30.2913 29.7961 30.638C32.862 27.7439 34.7784 23.6448 34.7784 19.0959C34.7777 10.3281 27.6709 3.22125 18.9024 3.2207C14.3535 3.22125 10.2555 5.13709 7.36133 8.20191ZM30.5703 26.2965H26.4188C26.9548 24.3647 27.2793 22.2031 27.3422 19.9074H32.5876C32.4513 22.2444 31.7314 24.4197 30.5703 26.2965ZM30.5692 11.8946C31.7309 13.7713 32.4507 15.9472 32.5876 18.2837H27.3368C27.2734 15.99 26.9585 13.8252 26.4225 11.8946H30.5692ZM28.5973 9.40107C28.8753 9.67909 29.1391 9.9703 29.3922 10.271H25.8962C25.6356 9.56124 25.3486 8.88476 25.0283 8.26323C24.6504 7.53336 24.2319 6.86904 23.7752 6.27972C25.6002 6.97363 27.2391 8.04441 28.5973 9.40107ZM19.7147 5.41189C19.9403 5.42563 20.1645 5.44307 20.3869 5.46686C20.7146 5.62278 21.0396 5.82998 21.3637 6.09364C22.4196 6.95251 23.4074 8.40378 24.1653 10.2709H19.7147V5.41189ZM19.7147 11.8946H24.7329C25.3 13.7771 25.6514 15.9551 25.7186 18.2837H19.7147V11.8946ZM16.4422 6.09364C16.7661 5.82991 17.0912 5.62278 17.4189 5.46631C17.6413 5.44252 17.8655 5.42509 18.0911 5.41135V10.271H13.649C13.8281 9.82859 14.0163 9.40162 14.2198 9.00842C14.872 7.74418 15.6394 6.74955 16.4422 6.09364Z" fill="#1E1D1B"/>
<path d="M36.3885 30.0015C36.0598 29.1151 35.6031 28.157 35.044 27.1412C34.6619 27.9033 34.2286 28.6363 33.7465 29.3329C33.9912 29.8387 34.1963 30.3143 34.3585 30.753C34.6888 31.6383 34.8379 32.3765 34.8352 32.8702C34.8352 33.1044 34.804 33.2803 34.7633 33.3988C34.7221 33.5177 34.6788 33.5795 34.6291 33.6308C34.5788 33.6794 34.5175 33.7222 34.3981 33.764C34.2803 33.8041 34.1043 33.8353 33.8701 33.8353C33.404 33.8374 32.7191 33.7058 31.8993 33.4125C31.078 33.1213 30.1198 32.6757 29.0687 32.0912C25.4648 30.0881 20.7838 26.4509 16.1683 21.8323C11.5497 17.2169 7.91247 12.5358 5.90886 8.9314C5.32438 7.88017 4.87937 6.92252 4.58761 6.10118C4.29482 5.28148 4.16269 4.59659 4.1648 4.13038C4.1648 3.8957 4.19652 3.71975 4.23672 3.60237C4.27794 3.48295 4.3208 3.42218 4.36988 3.37145C4.4217 3.32128 4.48295 3.27787 4.60244 3.23672C4.72029 3.19652 4.89625 3.1648 5.13147 3.1648C5.62455 3.16221 6.3629 3.31123 7.24658 3.64052C7.68682 3.80328 8.16465 4.00938 8.67311 4.25459C9.36969 3.77259 10.1011 3.33926 10.8638 2.95713C9.84581 2.39631 8.88557 1.93919 7.99765 1.61045C6.95858 1.22832 6.01522 1.00314 5.13154 1C4.71127 1.00062 4.30111 1.05346 3.90791 1.18614C3.5158 1.31821 3.14153 1.53703 2.83877 1.84144C2.53539 2.14317 2.31712 2.51689 2.18601 2.90853C2.05339 3.30118 2.00055 3.71079 2 4.13045C2.00267 4.96553 2.20398 5.85283 2.54804 6.82586C2.89366 7.79779 3.38886 8.85272 4.01729 9.98372C6.1704 13.8476 9.90385 18.6269 14.6377 23.3629C19.3737 28.0968 24.153 31.8301 28.0163 33.9833C29.1479 34.6117 30.2028 35.1069 31.1748 35.4526C32.1477 35.7962 33.0351 35.9975 33.8701 36.0001C34.2898 36.0001 34.6994 35.9467 35.0921 35.8146C35.4832 35.6831 35.8568 35.4653 36.1591 35.1619C36.4636 34.8585 36.6823 34.4843 36.814 34.0933C36.9466 33.7 36.9995 33.2899 37 32.8703C36.9969 31.9855 36.7717 31.0416 36.3885 30.0015Z" fill="#1E1D1B"/>
</svg>
