<svg width="22" height="22" viewBox="0 0 22 22" fill="none" xmlns="http://www.w3.org/2000/svg">
<path d="M11.1069 18.4896L11 18.6068L10.8824 18.4896C5.80588 13.436 2.45 10.0943 2.45 6.70572C2.45 4.36067 4.05313 2.60188 6.19063 2.60188C7.8365 2.60188 9.43962 3.77441 10.0061 5.36904H11.9939C12.5604 3.77441 14.1635 2.60188 15.8094 2.60188C17.9469 2.60188 19.55 4.36067 19.55 6.70572C19.55 10.0943 16.1941 13.436 11.1069 18.4896ZM15.8094 0.256836C13.9497 0.256836 12.1649 1.20658 11 2.69569C9.83506 1.20658 8.05025 0.256836 6.19063 0.256836C2.89888 0.256836 0.3125 3.08262 0.3125 6.70572C0.3125 11.1261 3.94625 14.7492 9.45031 20.2249L11 21.7727L12.5497 20.2249C18.0538 14.7492 21.6875 11.1261 21.6875 6.70572C21.6875 3.08262 19.1011 0.256836 15.8094 0.256836Z" fill="#1E1D1B" fill-opacity="0.9"/>
</svg>
