<svg width="22" height="22" viewBox="0 0 22 22" fill="none" xmlns="http://www.w3.org/2000/svg">
<path d="M11.1069 18.4906L11 18.6078L10.8824 18.4906C5.80588 13.437 2.45 10.0953 2.45 6.7067C2.45 4.36165 4.05313 2.60286 6.19063 2.60286C7.8365 2.60286 9.43962 3.77538 10.0061 5.37002H11.9939C12.5604 3.77538 14.1635 2.60286 15.8094 2.60286C17.9469 2.60286 19.55 4.36165 19.55 6.7067C19.55 10.0953 16.1941 13.437 11.1069 18.4906ZM15.8094 0.257812C13.9498 0.257812 12.1649 1.20756 11 2.69666C9.83506 1.20756 8.05025 0.257812 6.19063 0.257812C2.89888 0.257812 0.3125 3.0836 0.3125 6.7067C0.3125 11.1271 3.94625 14.7502 9.45031 20.2259L11 21.7736L12.5497 20.2259C18.0537 14.7502 21.6875 11.1271 21.6875 6.7067C21.6875 3.0836 19.1011 0.257812 15.8094 0.257812Z" fill="#003B95"/>
<path d="M11.1069 18.4906L11 18.6078L10.8824 18.4906C5.80588 13.437 2.45 10.0953 2.45 6.7067C2.45 4.36165 4.05313 2.60286 6.19063 2.60286C7.8365 2.60286 9.43962 3.77538 10.0061 5.37002H11.9939C12.5604 3.77538 14.1635 2.60286 15.8094 2.60286C17.9469 2.60286 19.55 4.36165 19.55 6.7067C19.55 10.0953 16.1941 13.437 11.1069 18.4906ZM15.8094 0.257812C13.9498 0.257812 12.1649 1.20756 11 2.69666C9.83506 1.20756 8.05025 0.257812 6.19063 0.257812C2.89888 0.257812 0.3125 3.0836 0.3125 6.7067C0.3125 11.1271 3.94625 14.7502 9.45031 20.2259L11 21.7736L12.5497 20.2259C18.0537 14.7502 21.6875 11.1271 21.6875 6.7067C21.6875 3.0836 19.1011 0.257812 15.8094 0.257812Z" fill="#003B95"/>
<path d="M11.09 17.2534L11 17.3515L10.901 17.2534C6.626 13.0256 3.8 10.23 3.8 7.3951C3.8 5.43324 5.15 3.96185 6.95 3.96185C8.336 3.96185 9.686 4.94278 10.163 6.27684H11.837C12.314 4.94278 13.664 3.96185 15.05 3.96185C16.85 3.96185 18.2 5.43324 18.2 7.3951C18.2 10.23 15.374 13.0256 11.09 17.2534ZM15.05 2C13.484 2 11.981 2.79455 11 4.04033C10.019 2.79455 8.516 2 6.95 2C4.178 2 2 4.36403 2 7.3951C2 11.0932 5.06 14.1243 9.695 18.7052L11 20L12.305 18.7052C16.94 14.1243 20 11.0932 20 7.3951C20 4.36403 17.822 2 15.05 2Z" fill="#003B95"/>
<path d="M11.09 17.2534L11 17.3515L10.901 17.2534C6.626 13.0256 3.8 10.23 3.8 7.3951C3.8 5.43324 5.15 3.96185 6.95 3.96185C8.336 3.96185 9.686 4.94278 10.163 6.27684H11.837C12.314 4.94278 13.664 3.96185 15.05 3.96185C16.85 3.96185 18.2 5.43324 18.2 7.3951C18.2 10.23 15.374 13.0256 11.09 17.2534ZM15.05 2C13.484 2 11.981 2.79455 11 4.04033C10.019 2.79455 8.516 2 6.95 2C4.178 2 2 4.36403 2 7.3951C2 11.0932 5.06 14.1243 9.695 18.7052L11 20L12.305 18.7052C16.94 14.1243 20 11.0932 20 7.3951C20 4.36403 17.822 2 15.05 2Z" fill="#003B95"/>
<path d="M11.08 16.5586L11 16.6458L10.912 16.5586C7.112 12.8005 4.6 10.3155 4.6 7.79564C4.6 6.05177 5.8 4.74387 7.4 4.74387C8.632 4.74387 9.832 5.6158 10.256 6.80163H11.744C12.168 5.6158 13.368 4.74387 14.6 4.74387C16.2 4.74387 17.4 6.05177 17.4 7.79564C17.4 10.3155 14.888 12.8005 11.08 16.5586ZM14.6 3C13.208 3 11.872 3.70627 11 4.81362C10.128 3.70627 8.792 3 7.4 3C4.936 3 3 5.10136 3 7.79564C3 11.0828 5.72 13.7771 9.84 17.849L11 19L12.16 17.849C16.28 13.7771 19 11.0828 19 7.79564C19 5.10136 17.064 3 14.6 3Z" fill="#003B95"/>
<path d="M11.08 16.5586L11 16.6458L10.912 16.5586C7.112 12.8005 4.6 10.3155 4.6 7.79564C4.6 6.05177 5.8 4.74387 7.4 4.74387C8.632 4.74387 9.832 5.6158 10.256 6.80163H11.744C12.168 5.6158 13.368 4.74387 14.6 4.74387C16.2 4.74387 17.4 6.05177 17.4 7.79564C17.4 10.3155 14.888 12.8005 11.08 16.5586ZM14.6 3C13.208 3 11.872 3.70627 11 4.81362C10.128 3.70627 8.792 3 7.4 3C4.936 3 3 5.10136 3 7.79564C3 11.0828 5.72 13.7771 9.84 17.849L11 19L12.16 17.849C16.28 13.7771 19 11.0828 19 7.79564C19 5.10136 17.064 3 14.6 3Z" fill="#003B95"/>
<path d="M11.07 15.8638L11 15.9401L10.923 15.8638C7.598 12.5755 5.4 10.4011 5.4 8.19619C5.4 6.6703 6.45 5.52589 7.85 5.52589C8.928 5.52589 9.978 6.28883 10.349 7.32643H11.651C12.022 6.28883 13.072 5.52589 14.15 5.52589C15.55 5.52589 16.6 6.6703 16.6 8.19619C16.6 10.4011 14.402 12.5755 11.07 15.8638ZM14.15 4C12.932 4 11.763 4.61798 11 5.58692C10.237 4.61798 9.068 4 7.85 4C5.694 4 4 5.83869 4 8.19619C4 11.0725 6.38 13.43 9.985 16.9929L11 18L12.015 16.9929C15.62 13.43 18 11.0725 18 8.19619C18 5.83869 16.306 4 14.15 4Z" fill="#003B95"/>
<path d="M11.07 15.8638L11 15.9401L10.923 15.8638C7.598 12.5755 5.4 10.4011 5.4 8.19619C5.4 6.6703 6.45 5.52589 7.85 5.52589C8.928 5.52589 9.978 6.28883 10.349 7.32643H11.651C12.022 6.28883 13.072 5.52589 14.15 5.52589C15.55 5.52589 16.6 6.6703 16.6 8.19619C16.6 10.4011 14.402 12.5755 11.07 15.8638ZM14.15 4C12.932 4 11.763 4.61798 11 5.58692C10.237 4.61798 9.068 4 7.85 4C5.694 4 4 5.83869 4 8.19619C4 11.0725 6.38 13.43 9.985 16.9929L11 18L12.015 16.9929C15.62 13.43 18 11.0725 18 8.19619C18 5.83869 16.306 4 14.15 4Z" fill="#003B95"/>
<path d="M11.06 15.1689L11 15.2343L10.934 15.1689C8.084 12.3504 6.2 10.4866 6.2 8.59673C6.2 7.28883 7.1 6.3079 8.3 6.3079C9.224 6.3079 10.124 6.96185 10.442 7.85123H11.558C11.876 6.96185 12.776 6.3079 13.7 6.3079C14.9 6.3079 15.8 7.28883 15.8 8.59673C15.8 10.4866 13.916 12.3504 11.06 15.1689ZM13.7 5C12.656 5 11.654 5.5297 11 6.36022C10.346 5.5297 9.344 5 8.3 5C6.452 5 5 6.57602 5 8.59673C5 11.0621 7.04 13.0828 10.13 16.1368L11 17L11.87 16.1368C14.96 13.0828 17 11.0621 17 8.59673C17 6.57602 15.548 5 13.7 5Z" fill="#003B95"/>
<path d="M11.06 15.1689L11 15.2343L10.934 15.1689C8.084 12.3504 6.2 10.4866 6.2 8.59673C6.2 7.28883 7.1 6.3079 8.3 6.3079C9.224 6.3079 10.124 6.96185 10.442 7.85123H11.558C11.876 6.96185 12.776 6.3079 13.7 6.3079C14.9 6.3079 15.8 7.28883 15.8 8.59673C15.8 10.4866 13.916 12.3504 11.06 15.1689ZM13.7 5C12.656 5 11.654 5.5297 11 6.36022C10.346 5.5297 9.344 5 8.3 5C6.452 5 5 6.57602 5 8.59673C5 11.0621 7.04 13.0828 10.13 16.1368L11 17L11.87 16.1368C14.96 13.0828 17 11.0621 17 8.59673C17 6.57602 15.548 5 13.7 5Z" fill="#003B95"/>
<path d="M11.555 14.3215L12 15L13.5 13.5C10.8875 10.9163 14.5 7.93134 14.5 6.19891C14.5 5 7.925 6.19891 9.025 6.19891C9.872 6.19891 12.006 13.8867 12.2975 14.702L12.0115 7.61362C12.303 6.79837 13.128 6.19891 13.975 6.19891C15.075 6.19891 10 9.30109 10 10.5C10 12.2324 14.173 11.7379 11.555 14.3215ZM13.975 5C13.018 5 12.0995 5.48556 11.5 6.24687C10.9005 5.48556 9.982 5 9.025 5C7.331 5 6 6.44469 6 8.297C6 10.5569 7.87 12.4093 10.7025 15.2087L11.5 16L12.2975 15.2087C15.13 12.4093 17 10.5569 17 8.297C17 6.44469 15.669 5 13.975 5Z" fill="#003B95"/>
<path d="M11.555 14.3215L12 15L13.5 13.5C10.8875 10.9163 14.5 7.93134 14.5 6.19891C14.5 5 7.925 6.19891 9.025 6.19891C9.872 6.19891 12.006 13.8867 12.2975 14.702L12.0115 7.61362C12.303 6.79837 13.128 6.19891 13.975 6.19891C15.075 6.19891 10 9.30109 10 10.5C10 12.2324 14.173 11.7379 11.555 14.3215ZM13.975 5C13.018 5 12.0995 5.48556 11.5 6.24687C10.9005 5.48556 9.982 5 9.025 5C7.331 5 6 6.44469 6 8.297C6 10.5569 7.87 12.4093 10.7025 15.2087L11.5 16L12.2975 15.2087C15.13 12.4093 17 10.5569 17 8.297C17 6.44469 15.669 5 13.975 5Z" fill="#003B95"/>
</svg>
