<svg width="39" height="39" viewBox="0 0 39 39" fill="none" xmlns="http://www.w3.org/2000/svg">
<path d="M33.0312 29.6089V12.1382C33.0318 11.54 32.8437 10.9568 32.4938 10.4715C32.1439 9.98621 31.6499 9.62358 31.0821 9.43512L14.9914 4.07156C14.7775 4.00101 14.5498 3.98228 14.3272 4.01691C14.1046 4.05153 13.8934 4.13853 13.711 4.27074C13.5271 4.40165 13.3771 4.57443 13.2732 4.77481C13.1693 4.97519 13.1145 5.19741 13.1135 5.42312V29.6089H7.4227C7.04537 29.6089 6.6835 29.7588 6.4167 30.0256C6.14989 30.2924 6 30.6543 6 31.0316C6 31.409 6.14989 31.7708 6.4167 32.0376C6.6835 32.3044 7.04537 32.4543 7.4227 32.4543H33.0312C33.4085 32.4543 33.7704 32.3044 34.0372 32.0376C34.304 31.7708 34.4539 31.409 34.4539 31.0316C34.4539 30.6543 34.304 30.2924 34.0372 30.0256C33.7704 29.7588 33.4085 29.6089 33.0312 29.6089Z" fill="#1E1D1B" fill-opacity="0.8"/>
<path d="M12.7332 12.9219H9.38702C8.79538 12.9219 8.22798 13.1905 7.80963 13.6686C7.39128 14.1467 7.15625 14.7952 7.15625 15.4713V29.4933C7.15625 29.8314 7.27376 30.1556 7.48294 30.3947C7.69211 30.6337 7.97582 30.768 8.27163 30.768H12.7332C13.029 30.768 13.3127 30.6337 13.5219 30.3947C13.731 30.1556 13.8486 29.8314 13.8486 29.4933V14.1966C13.8486 13.8585 13.731 13.5343 13.5219 13.2952C13.3127 13.0562 13.029 12.9219 12.7332 12.9219Z" fill="url(#paint0_linear_2024_742)" fill-opacity="0.8"/>
<path d="M25.1311 21.0742H19.4403C19.063 21.0742 18.7011 21.2241 18.4343 21.4909C18.1675 21.7577 18.0176 22.1196 18.0176 22.4969V29.6104H26.5538V22.4969C26.5538 22.1196 26.4039 21.7577 26.1371 21.4909C25.8702 21.2241 25.5084 21.0742 25.1311 21.0742Z" fill="url(#paint1_linear_2024_742)"/>
<defs>
<linearGradient id="paint0_linear_2024_742" x1="10.5024" y1="12.9219" x2="10.5024" y2="30.768" gradientUnits="userSpaceOnUse">
<stop stop-color="white"/>
<stop offset="1" stop-color="#0D57BD"/>
</linearGradient>
<linearGradient id="paint1_linear_2024_742" x1="22.2857" y1="21.0742" x2="22.2857" y2="29.6104" gradientUnits="userSpaceOnUse">
<stop stop-color="white"/>
<stop offset="1" stop-color="#0D57BD"/>
</linearGradient>
</defs>
</svg>
