<svg width="38" height="39" viewBox="0 0 38 39" fill="none" xmlns="http://www.w3.org/2000/svg">
<g clip-path="url(#clip0_1_9519)">
<path opacity="0.4" d="M30.6049 8.39435L9.0815 29.9177C8.27484 30.7243 6.91815 30.6143 6.25815 29.661C3.98482 26.3427 2.64648 22.4193 2.64648 18.386V10.3377C2.64648 8.83435 3.78315 7.12935 5.17648 6.56102L15.3882 2.38102C17.6982 1.42768 20.2649 1.42768 22.5749 2.38102L29.9815 5.406C31.2099 5.901 31.5215 7.47768 30.6049 8.39435Z" fill="#1E1D1B"/>
<path d="M32.3277 10.907C33.5194 9.89864 35.3343 10.7603 35.3343 12.3186V18.3869C35.3343 27.3519 28.826 35.7486 19.9344 38.2053C19.3294 38.3703 18.6693 38.3703 18.046 38.2053C15.4427 37.4719 13.0227 36.2436 10.951 34.6303C10.071 33.9519 9.97937 32.6686 10.7494 31.8803C14.746 27.7919 26.4427 15.8753 32.3277 10.907Z" fill="#083E92"/>
</g>
<defs>
<clipPath id="clip0_1_9519">
<rect width="38" height="39" fill="white"/>
</clipPath>
</defs>
</svg>
