<svg width="24" height="24" viewBox="0 0 24 24" fill="none" xmlns="http://www.w3.org/2000/svg">
<path d="M19.8337 15.6263C20.409 15.6263 20.8753 15.1599 20.8753 14.5846C20.8753 14.0093 20.409 13.543 19.8337 13.543C19.2583 13.543 18.792 14.0093 18.792 14.5846C18.792 15.1599 19.2583 15.6263 19.8337 15.6263Z" fill="#1E1D1B"/>
<path fill-rule="evenodd" clip-rule="evenodd" d="M16.4743 1.02826C18.2627 0.481783 20.1275 1.61793 20.4621 3.45784L20.8089 5.3653C22.0572 5.77498 22.9587 6.94978 22.9587 8.33513V11.2142C23.5979 11.7864 24.0003 12.6179 24.0003 13.5435V15.6268C24.0003 16.5523 23.5979 17.3839 22.9587 17.9561V20.8351C22.9587 22.5611 21.5596 23.9601 19.8337 23.9601H3.16699C1.44111 23.9601 0.0419922 22.5611 0.0419922 20.8351V8.33513C0.0419922 6.78627 1.1688 5.50059 2.64739 5.25313L16.4743 1.02826ZM20.8753 16.6685C21.4506 16.6685 21.917 16.2021 21.917 15.6268V13.5435C21.917 12.9682 21.4506 12.5018 20.8753 12.5018H17.7503C17.175 12.5018 16.7087 12.9682 16.7087 13.5435V15.6268C16.7087 16.2021 17.175 16.6685 17.7503 16.6685H20.8753ZM20.8753 18.7518V20.8351C20.8753 21.4104 20.409 21.8768 19.8337 21.8768H3.16699C2.5917 21.8768 2.12533 21.4104 2.12533 20.8351V8.33513C2.12533 7.75984 2.5917 7.29347 3.16699 7.29347H19.8337C20.4066 7.29347 20.8714 7.75592 20.8753 8.32787V10.4185H17.7503C16.0244 10.4185 14.6253 11.8175 14.6253 13.5435V15.6268C14.6253 17.3527 16.0244 18.7518 17.7503 18.7518H20.8753ZM18.4747 3.75914L18.7307 5.21013H9.41699L17.1495 2.94244C17.7467 2.7633 18.3664 3.14523 18.4747 3.75914Z" fill="#1E1D1B"/>
</svg>
