<svg width="39" height="32" viewBox="0 0 39 32" fill="none" xmlns="http://www.w3.org/2000/svg">
<path d="M4.00002 -0.00390625C2.67815 -0.00390625 1.60002 1.07422 1.60002 2.39609V13.4461C2.63752 12.5461 3.95002 11.818 5.60002 11.2461V7.99609C5.60002 5.86797 9.2344 5.59609 12.4 5.59609C15.5656 5.59609 19.2 5.86797 19.2 7.99609V9.59609C19.4688 9.59297 19.725 9.59609 20 9.59609C20.275 9.59609 20.5313 9.59297 20.8 9.59609V7.99609C20.8 5.86797 24.4344 5.59609 27.6 5.59609C30.7656 5.59609 34.4 5.86797 34.4 7.99609V11.2211C36.0469 11.7898 37.3531 12.5336 38.4 13.4461V2.39609C38.4 1.07422 37.3219 -0.00390625 36 -0.00390625H4.00002ZM20 11.1961C4.72502 11.1961 -0.0124753 14.0211 2.46579e-05 21.5961H40C40.0125 13.9711 35.275 11.1961 20 11.1961ZM2.46579e-05 23.1961V31.9961H5.60002V28.7961C5.60002 27.6461 6.05002 27.1961 7.20002 27.1961H32.8C33.95 27.1961 34.4 27.6461 34.4 28.7961V31.9961H40V23.1961H2.46579e-05Z" fill="#1E1D1B"/>
</svg>
