<svg width="30" height="35" viewBox="0 0 30 35" fill="none" xmlns="http://www.w3.org/2000/svg">
<path d="M9.22461 31.3984C10.5563 33.0913 12.6484 34.1823 15.0009 34.1823C17.3535 34.1823 19.4455 33.0913 20.7773 31.3984C16.9427 31.9181 13.0591 31.9181 9.22461 31.3984Z" fill="#F5F5F5"/>
<path d="M25.6861 15.0716V16.1864C25.6861 17.5244 26.068 18.8323 26.7835 19.9454L28.5369 22.6735C30.1386 25.1652 28.9159 28.552 26.1302 29.34C18.8432 31.4012 11.1568 31.4012 3.86974 29.34C1.08416 28.552 -0.138534 25.1652 1.46307 22.6735L3.21652 19.9454C3.93206 18.8323 4.31388 17.5244 4.31388 16.1864V15.0716C4.31388 8.95046 9.09822 3.98828 15 3.98828C20.9017 3.98828 25.6861 8.95046 25.6861 15.0716Z" fill="#F5F5F5"/>
<rect x="13" y="0.822266" width="3" height="6" rx="1.5" fill="#F5F5F5"/>
</svg>
