<svg width="39" height="39" viewBox="0 0 39 39" fill="none" xmlns="http://www.w3.org/2000/svg">
<path d="M31.25 32.125V7.74998C31.25 5.68182 29.5682 4 27.5 4H12.5C10.4318 4 8.75002 5.68182 8.75002 7.74998V32.125H6.875V34H33.125V32.125H31.25V32.125ZM21.875 9.625H25.625V13.375H21.875V9.625ZM21.875 15.25H25.625V19H21.875V15.25ZM21.875 20.875H25.625V24.625H21.875V20.875ZM14.375 9.625H18.125V13.375H14.375V9.625ZM14.375 15.25H18.125V19H14.375V15.25ZM14.375 20.875H18.125V24.625H14.375V20.875ZM16.25 32.125V26.5H23.75V32.125H16.25Z" fill="#1E1D1B"/>
</svg>
