<svg width="46" height="34" viewBox="0 0 46 34" fill="none" xmlns="http://www.w3.org/2000/svg">
<path d="M31.9619 20.0079C36.8963 20.0079 40.8951 16.0077 40.8951 11.074V8.93386C40.8951 4.00024 36.8963 0 31.9619 0C27.0269 0 23.0273 4.00024 23.0273 8.93393V11.0741C23.0273 16.0077 27.0269 20.0079 31.9619 20.0079Z" fill="#003B95"/>
<path d="M45.1261 26.6632C43.8663 24.4238 41.803 21.8873 38.4438 20.4453C36.5226 21.7894 34.1887 22.5807 31.6726 22.5807C29.1551 22.5807 26.8212 21.7894 24.8999 20.4453C21.5408 21.8873 19.4774 24.4239 18.2183 26.6632C16.5473 29.6335 17.8574 33.8364 20.7474 33.8364C23.6374 33.8364 31.6727 33.8364 31.6727 33.8364C31.6727 33.8364 39.7071 33.8364 42.5972 33.8364C45.4871 33.8364 46.7972 29.6335 45.1261 26.6632Z" fill="#003B95"/>
<path d="M9.70833 23.6393V16.9319M9.70833 16.9319V10.2227M9.70833 16.9319L16.4167 16.9328M9.70833 16.9319L3 16.931" stroke="#003B95" stroke-width="4.47222" stroke-linecap="round" stroke-linejoin="round"/>
</svg>
