<svg width="33" height="33" viewBox="0 0 33 33" fill="none" xmlns="http://www.w3.org/2000/svg">
<path fill-rule="evenodd" clip-rule="evenodd" d="M26.2907 19.8196C26.2913 22.0366 25.7301 24.2175 24.6595 26.1588C23.589 28.1001 22.0439 29.7385 20.1687 30.921C18.2934 32.1035 16.1491 32.7915 13.936 32.9208C11.7228 33.0501 9.51295 32.6164 7.51275 31.6604C6.92956 31.3669 6.26075 31.2913 5.62676 31.4472L3.61449 31.9867C3.25315 32.0832 2.87281 32.0828 2.51164 31.9858C2.15046 31.8888 1.82117 31.6984 1.55681 31.4339C1.29245 31.1694 1.10232 30.84 1.00551 30.4787C0.9087 30.1175 0.908612 29.7372 1.00526 29.3759L1.54317 27.3636C1.69918 26.7296 1.62357 26.0608 1.32997 25.4776C0.482056 23.7008 0.0448773 21.756 0.0508415 19.7872C0.0568057 17.8185 0.50576 15.8763 1.36443 14.1047C2.2231 12.3331 3.46946 10.7774 5.01115 9.55302C6.55283 8.32861 8.35031 7.46686 10.2703 7.03164C12.1904 6.59641 14.1838 6.59887 16.1027 7.03884C18.0217 7.4788 19.817 8.34499 21.3557 9.5732C22.8943 10.8014 24.1368 12.3601 24.9911 14.1339C25.8454 15.9076 26.2896 17.8509 26.2907 19.8196ZM7.43075 21.4596C7.86571 21.4596 8.28285 21.2868 8.5904 20.9793C8.89796 20.6717 9.07075 20.2546 9.07075 19.8196C9.07075 19.3847 8.89796 18.9675 8.5904 18.66C8.28285 18.3524 7.86571 18.1796 7.43075 18.1796C6.9958 18.1796 6.57866 18.3524 6.2711 18.66C5.96354 18.9675 5.79076 19.3847 5.79076 19.8196C5.79076 20.2546 5.96354 20.6717 6.2711 20.9793C6.57866 21.2868 6.9958 21.4596 7.43075 21.4596ZM13.1707 21.4596C13.6057 21.4596 14.0228 21.2868 14.3304 20.9793C14.6379 20.6717 14.8107 20.2546 14.8107 19.8196C14.8107 19.3847 14.6379 18.9675 14.3304 18.66C14.0228 18.3524 13.6057 18.1796 13.1707 18.1796C12.7358 18.1796 12.3186 18.3524 12.0111 18.66C11.7035 18.9675 11.5307 19.3847 11.5307 19.8196C11.5307 20.2546 11.7035 20.6717 12.0111 20.9793C12.3186 21.2868 12.7358 21.4596 13.1707 21.4596ZM18.9107 21.4596C19.3457 21.4596 19.7628 21.2868 20.0704 20.9793C20.3779 20.6717 20.5507 20.2546 20.5507 19.8196C20.5507 19.3847 20.3779 18.9675 20.0704 18.66C19.7628 18.3524 19.3457 18.1796 18.9107 18.1796C18.4758 18.1796 18.0586 18.3524 17.7511 18.66C17.4435 18.9675 17.2707 19.3847 17.2707 19.8196C17.2707 20.2546 17.4435 20.6717 17.7511 20.9793C18.0586 21.2868 18.4758 21.4596 18.9107 21.4596Z" fill="#F5F5F5"/>
<path opacity="0.7" d="M25.9659 20.6549C26.1429 20.5821 26.3179 20.5044 26.4907 20.422C26.9679 20.1924 27.5108 20.1121 28.0224 20.2498L29.6559 20.6877C29.9497 20.7667 30.2592 20.7669 30.5531 20.6883C30.847 20.6097 31.1151 20.455 31.3302 20.2399C31.5454 20.0247 31.7 19.7567 31.7786 19.4628C31.8573 19.1688 31.857 18.8594 31.778 18.5656L31.3402 16.9321C31.213 16.4168 31.2741 15.873 31.5124 15.3987C32.1118 14.1157 32.4496 12.726 32.506 11.311C32.5624 9.89592 32.3362 8.48381 31.8408 7.15713C31.3453 5.83044 30.5905 4.61578 29.6204 3.58407C28.6502 2.55237 27.4842 1.72432 26.1905 1.14827C24.8968 0.572228 23.5012 0.259741 22.0854 0.229064C20.6695 0.198387 19.2618 0.450133 17.9443 0.969601C16.6268 1.48907 15.4261 2.26584 14.4122 3.25456C13.3983 4.24327 12.5915 5.4241 12.0391 6.72808C13.899 6.60945 15.7628 6.88843 17.5065 7.54644C19.2501 8.20445 20.8336 9.2264 22.1514 10.5442C23.4692 11.862 24.4912 13.4455 25.1492 15.1892C25.8072 16.9328 26.0862 18.7966 25.9675 20.6566" fill="url(#paint0_linear_2008_746)"/>
<defs>
<linearGradient id="paint0_linear_2008_746" x1="11.0005" y1="-1.17578" x2="34.5005" y2="27.3242" gradientUnits="userSpaceOnUse">
<stop offset="0.36" stop-color="white"/>
<stop offset="1" stop-color="#1054B6"/>
</linearGradient>
</defs>
</svg>
