<svg width="19" height="21" viewBox="0 0 19 21" fill="none" xmlns="http://www.w3.org/2000/svg">
<g clip-path="url(#clip0_630_1121)">
<path d="M5.32934 7.32324H3.17082C2.78917 7.32324 2.42316 7.49651 2.15329 7.80493C1.88342 8.11335 1.73181 8.53166 1.73181 8.96783V18.013C1.73181 18.2311 1.80762 18.4403 1.94255 18.5945C2.07748 18.7487 2.26049 18.8353 2.45132 18.8353H5.32934C5.52017 18.8353 5.70317 18.7487 5.83811 18.5945C5.97304 18.4403 6.04885 18.2311 6.04885 18.013V8.14553C6.04885 7.92745 5.97304 7.7183 5.83811 7.56409C5.70317 7.40988 5.52017 7.32324 5.32934 7.32324Z" fill="url(#paint0_linear_630_1121)" fill-opacity="0.8"/>
<path d="M18.4227 18.0861V6.81618C18.4231 6.43025 18.3018 6.05403 18.0761 5.74099C17.8503 5.42796 17.5317 5.19403 17.1654 5.07246L6.78574 1.61257C6.64772 1.56706 6.50087 1.55498 6.35728 1.57731C6.21368 1.59965 6.07744 1.65577 5.95977 1.74105C5.84116 1.8255 5.74434 1.93696 5.67732 2.06622C5.6103 2.19547 5.57499 2.33882 5.57432 2.48442V18.0861H1.90334C1.65994 18.0861 1.42651 18.1828 1.2544 18.3549C1.08229 18.527 0.985596 18.7604 0.985596 19.0038C0.985596 19.2472 1.08229 19.4807 1.2544 19.6528C1.42651 19.8249 1.65994 19.9216 1.90334 19.9216H18.4227C18.6661 19.9216 18.8996 19.8249 19.0717 19.6528C19.2438 19.4807 19.3405 19.2472 19.3405 19.0038C19.3405 18.7604 19.2438 18.527 19.0717 18.3549C18.8996 18.1828 18.6661 18.0861 18.4227 18.0861Z" fill="#1E1D1B" fill-opacity="0.8"/>
<path d="M13.3266 12.5801H9.65566C9.41226 12.5801 9.17883 12.6768 9.00672 12.8489C8.83461 13.021 8.73792 13.2544 8.73792 13.4978V18.0865H14.2444V13.4978C14.2444 13.2544 14.1477 13.021 13.9756 12.8489C13.8035 12.6768 13.57 12.5801 13.3266 12.5801Z" fill="url(#paint1_linear_630_1121)"/>
</g>
<defs>
<linearGradient id="paint0_linear_630_1121" x1="3.89033" y1="7.32324" x2="3.89033" y2="18.8353" gradientUnits="userSpaceOnUse">
<stop stop-color="white"/>
<stop offset="1" stop-color="#0D57BD"/>
</linearGradient>
<linearGradient id="paint1_linear_630_1121" x1="11.4911" y1="12.5801" x2="11.4911" y2="18.0865" gradientUnits="userSpaceOnUse">
<stop stop-color="white"/>
<stop offset="1" stop-color="#0D57BD"/>
</linearGradient>
<clipPath id="clip0_630_1121">
<rect width="18.7072" height="20.1462" fill="white" transform="translate(0.292847 0.847656)"/>
</clipPath>
</defs>
</svg>
