<svg width="46" height="34" fill="none" xmlns="http://www.w3.org/2000/svg"><path d="M31.962 20.008c4.934 0 8.933-4 8.933-8.934v-2.14a8.934 8.934 0 0 0-17.868 0v2.14c0 4.934 4 8.934 8.935 8.934ZM45.126 26.663c-1.26-2.24-3.323-4.776-6.682-6.218a11.773 11.773 0 0 1-6.771 2.136c-2.518 0-4.852-.792-6.773-2.136-3.36 1.442-5.423 3.979-6.682 6.218-1.67 2.97-.36 7.173 2.53 7.173h21.849c2.89 0 4.2-4.202 2.53-7.173Z" fill="#003B95"/><path d="M9.708 23.64v-6.708m0 0v-6.71m0 6.71h6.709m-6.709 0L3 16.93" stroke="#003B95" stroke-width="4.472" stroke-linecap="round" stroke-linejoin="round"/></svg>