<svg width="39" height="39" fill="none" xmlns="http://www.w3.org/2000/svg"><path d="M21.365 32.097c-.324.264-.65.47-.977.627a14.05 14.05 0 0 1-.672.055v-2.612c-.538-.44-1.08-.898-1.623-1.369v3.981c-.225-.014-.45-.031-.671-.055a4.881 4.881 0 0 1-.978-.627c-1.056-.86-2.044-2.31-2.802-4.177h3.45a88.198 88.198 0 0 1-1.765-1.624h-2.253c-.269-.895-.486-1.86-.65-2.872a92.434 92.434 0 0 1-1.869-1.992c.136 1.728.415 3.368.83 4.864H7.236a13.617 13.617 0 0 1-2.017-6.39H9.2a75.073 75.073 0 0 1-1.368-1.623H5.22a13.71 13.71 0 0 1 .457-2.78 52.753 52.753 0 0 1-1.545-2.218 15.823 15.823 0 0 0-1.103 5.81c0 8.768 7.107 15.874 15.875 15.875 2.051 0 4.01-.394 5.81-1.102a55.28 55.28 0 0 1-2.973-2.108c-.125.12-.25.234-.376.337ZM9.21 28.79c-.278-.278-.543-.57-.796-.87h3.497c.26.71.547 1.386.868 2.008.378.73.797 1.395 1.254 1.983a13.723 13.723 0 0 1-4.823-3.12ZM7.361 8.202c.347.62.741 1.268 1.175 1.934.217-.251.437-.5.672-.735a13.726 13.726 0 0 1 4.834-3.126c-.85 1.092-1.566 2.446-2.135 3.996H8.622c.348.53.723 1.072 1.12 1.624h1.645c-.15.538-.278 1.098-.394 1.671.435.56.89 1.125 1.364 1.695.17-1.194.41-2.327.723-3.366h5.011v6.389h-3.084a82.808 82.808 0 0 0 1.54 1.623h1.544v1.544c.54.525 1.081 1.04 1.624 1.54v-3.084h5.998c-.066 2.33-.42 4.506-.987 6.39h-1.188c.78.628 1.55 1.22 2.303 1.768.018-.05.04-.095.058-.145h3.494c-.253.3-.517.592-.795.87a13.39 13.39 0 0 1-.733.675c.666.433 1.312.826 1.931 1.173a15.825 15.825 0 0 0 4.982-11.542c0-8.768-7.107-15.875-15.876-15.875A15.828 15.828 0 0 0 7.362 8.2Zm23.21 18.095h-4.152c.536-1.932.86-4.094.923-6.39h5.246a13.617 13.617 0 0 1-2.018 6.39Zm-.002-14.402a13.62 13.62 0 0 1 2.019 6.389h-5.251c-.064-2.294-.378-4.459-.915-6.39h4.147ZM28.597 9.4c.278.278.542.57.795.87h-3.496c-.26-.71-.547-1.386-.868-2.008a12.969 12.969 0 0 0-1.253-1.983A13.73 13.73 0 0 1 28.597 9.4Zm-8.882-3.99c.225.015.45.032.672.056.328.156.653.363.977.627 1.056.859 2.043 2.31 2.801 4.177h-4.45V5.41Zm0 6.484h5.018c.567 1.882.918 4.06.986 6.389h-6.004v-6.39Zm-3.273-5.801c.324-.264.65-.471.977-.628.222-.023.447-.04.672-.055v4.86H13.65c.18-.442.367-.87.57-1.263.653-1.264 1.42-2.258 2.223-2.914Z" fill="#1E1D1B"/><path d="M36.389 30.002c-.33-.887-.786-1.845-1.345-2.86a18.13 18.13 0 0 1-1.297 2.19c.244.507.45.982.611 1.421.33.885.48 1.623.477 2.117 0 .234-.031.41-.072.529a.576.576 0 0 1-.134.232.58.58 0 0 1-.23.133 1.68 1.68 0 0 1-.529.071c-.466.002-1.15-.13-1.97-.422-.822-.292-1.78-.737-2.831-1.322-3.604-2.003-8.285-5.64-12.9-10.259-4.62-4.615-8.257-9.296-10.26-12.9-.585-1.052-1.03-2.01-1.321-2.83-.293-.82-.425-1.505-.423-1.972 0-.234.032-.41.072-.528a.57.57 0 0 1 .133-.23.572.572 0 0 1 .232-.135c.118-.04.294-.072.53-.072.493-.003 1.23.146 2.115.476.44.162.918.368 1.426.614a18.086 18.086 0 0 1 2.19-1.298C9.847 2.397 8.887 1.94 7.999 1.61c-1.04-.382-1.983-.607-2.866-.61-.42 0-.83.053-1.224.186-.392.132-.766.351-1.07.655a2.727 2.727 0 0 0-.652 1.068A3.808 3.808 0 0 0 2 4.13c.003.836.204 1.723.548 2.696.346.972.84 2.027 1.47 3.158 2.152 3.864 5.886 8.643 10.62 13.379 4.736 4.734 9.515 8.467 13.378 10.62 1.132.629 2.187 1.124 3.159 1.47.973.343 1.86.544 2.695.547.42 0 .83-.053 1.222-.185.391-.132.765-.35 1.067-.653.305-.303.523-.678.655-1.069.133-.393.185-.803.186-1.223-.003-.884-.228-1.828-.611-2.868Z" fill="#1E1D1B"/></svg>