<svg width="22" height="22" fill="none" xmlns="http://www.w3.org/2000/svg"><path d="m11.107 18.49-.107.118-.118-.117C5.806 13.437 2.45 10.095 2.45 6.707c0-2.345 1.603-4.104 3.74-4.104 1.646 0 3.25 1.172 3.816 2.767h1.988c.566-1.595 2.17-2.767 3.815-2.767 2.138 0 3.741 1.759 3.741 4.104 0 3.388-3.356 6.73-8.443 11.784ZM15.809.259c-1.86 0-3.644.95-4.809 2.439C9.835 1.207 8.05.257 6.19.257 2.9.258.313 3.085.313 6.708c0 4.42 3.634 8.043 9.138 13.519L11 21.774l1.55-1.548c5.504-5.476 9.137-9.099 9.137-13.52 0-3.622-2.586-6.448-5.878-6.448Z" fill="#003B95"/><path d="m11.107 18.49-.107.118-.118-.117C5.806 13.437 2.45 10.095 2.45 6.707c0-2.345 1.603-4.104 3.74-4.104 1.646 0 3.25 1.172 3.816 2.767h1.988c.566-1.595 2.17-2.767 3.815-2.767 2.138 0 3.741 1.759 3.741 4.104 0 3.388-3.356 6.73-8.443 11.784ZM15.809.259c-1.86 0-3.644.95-4.809 2.439C9.835 1.207 8.05.257 6.19.257 2.9.258.313 3.085.313 6.708c0 4.42 3.634 8.043 9.138 13.519L11 21.774l1.55-1.548c5.504-5.476 9.137-9.099 9.137-13.52 0-3.622-2.586-6.448-5.878-6.448Z" fill="#003B95"/><path d="m11.09 17.253-.09.099-.099-.099C6.626 13.026 3.8 10.23 3.8 7.395c0-1.962 1.35-3.433 3.15-3.433 1.386 0 2.736.98 3.213 2.315h1.674c.477-1.334 1.827-2.315 3.213-2.315 1.8 0 3.15 1.471 3.15 3.433 0 2.835-2.826 5.63-7.11 9.858ZM15.05 2c-1.566 0-3.069.795-4.05 2.04C10.019 2.795 8.516 2 6.95 2 4.178 2 2 4.364 2 7.395c0 3.698 3.06 6.73 7.695 11.31L11 20l1.305-1.295C16.94 14.125 20 11.093 20 7.395 20 4.364 17.822 2 15.05 2Z" fill="#003B95"/><path d="m11.09 17.253-.09.099-.099-.099C6.626 13.026 3.8 10.23 3.8 7.395c0-1.962 1.35-3.433 3.15-3.433 1.386 0 2.736.98 3.213 2.315h1.674c.477-1.334 1.827-2.315 3.213-2.315 1.8 0 3.15 1.471 3.15 3.433 0 2.835-2.826 5.63-7.11 9.858ZM15.05 2c-1.566 0-3.069.795-4.05 2.04C10.019 2.795 8.516 2 6.95 2 4.178 2 2 4.364 2 7.395c0 3.698 3.06 6.73 7.695 11.31L11 20l1.305-1.295C16.94 14.125 20 11.093 20 7.395 20 4.364 17.822 2 15.05 2Z" fill="#003B95"/><path d="m11.08 16.559-.08.087-.088-.087C7.112 12.8 4.6 10.315 4.6 7.796c0-1.744 1.2-3.052 2.8-3.052 1.232 0 2.432.872 2.856 2.058h1.488c.424-1.186 1.624-2.058 2.856-2.058 1.6 0 2.8 1.308 2.8 3.052 0 2.52-2.512 5.004-6.32 8.763ZM14.6 3c-1.392 0-2.728.706-3.6 1.814C10.128 3.706 8.792 3 7.4 3 4.936 3 3 5.101 3 7.796c0 3.287 2.72 5.981 6.84 10.053L11 19l1.16-1.151C16.28 13.777 19 11.083 19 7.796 19 5.1 17.064 3 14.6 3Z" fill="#003B95"/><path d="m11.08 16.559-.08.087-.088-.087C7.112 12.8 4.6 10.315 4.6 7.796c0-1.744 1.2-3.052 2.8-3.052 1.232 0 2.432.872 2.856 2.058h1.488c.424-1.186 1.624-2.058 2.856-2.058 1.6 0 2.8 1.308 2.8 3.052 0 2.52-2.512 5.004-6.32 8.763ZM14.6 3c-1.392 0-2.728.706-3.6 1.814C10.128 3.706 8.792 3 7.4 3 4.936 3 3 5.101 3 7.796c0 3.287 2.72 5.981 6.84 10.053L11 19l1.16-1.151C16.28 13.777 19 11.083 19 7.796 19 5.1 17.064 3 14.6 3Z" fill="#003B95"/><path d="m11.07 15.864-.07.076-.077-.076C7.598 12.575 5.4 10.4 5.4 8.196c0-1.526 1.05-2.67 2.45-2.67 1.078 0 2.128.763 2.499 1.8h1.302c.371-1.037 1.421-1.8 2.499-1.8 1.4 0 2.45 1.144 2.45 2.67 0 2.205-2.198 4.38-5.53 7.668ZM14.15 4c-1.218 0-2.387.618-3.15 1.587C10.237 4.618 9.068 4 7.85 4 5.694 4 4 5.839 4 8.196c0 2.877 2.38 5.234 5.985 8.797L11 18l1.015-1.007C15.62 13.43 18 11.073 18 8.196 18 5.84 16.306 4 14.15 4Z" fill="#003B95"/><path d="m11.07 15.864-.07.076-.077-.076C7.598 12.575 5.4 10.4 5.4 8.196c0-1.526 1.05-2.67 2.45-2.67 1.078 0 2.128.763 2.499 1.8h1.302c.371-1.037 1.421-1.8 2.499-1.8 1.4 0 2.45 1.144 2.45 2.67 0 2.205-2.198 4.38-5.53 7.668ZM14.15 4c-1.218 0-2.387.618-3.15 1.587C10.237 4.618 9.068 4 7.85 4 5.694 4 4 5.839 4 8.196c0 2.877 2.38 5.234 5.985 8.797L11 18l1.015-1.007C15.62 13.43 18 11.073 18 8.196 18 5.84 16.306 4 14.15 4Z" fill="#003B95"/><path d="m11.06 15.169-.06.065-.066-.065C8.084 12.35 6.2 10.487 6.2 8.597c0-1.308.9-2.29 2.1-2.29.924 0 1.824.655 2.142 1.544h1.116c.318-.89 1.218-1.543 2.142-1.543 1.2 0 2.1.98 2.1 2.289 0 1.89-1.884 3.753-4.74 6.572ZM13.7 5c-1.044 0-2.046.53-2.7 1.36C10.346 5.53 9.344 5 8.3 5 6.452 5 5 6.576 5 8.597c0 2.465 2.04 4.486 5.13 7.54L11 17l.87-.863c3.09-3.054 5.13-5.075 5.13-7.54C17 6.576 15.548 5 13.7 5Z" fill="#003B95"/><path d="m11.06 15.169-.06.065-.066-.065C8.084 12.35 6.2 10.487 6.2 8.597c0-1.308.9-2.29 2.1-2.29.924 0 1.824.655 2.142 1.544h1.116c.318-.89 1.218-1.543 2.142-1.543 1.2 0 2.1.98 2.1 2.289 0 1.89-1.884 3.753-4.74 6.572ZM13.7 5c-1.044 0-2.046.53-2.7 1.36C10.346 5.53 9.344 5 8.3 5 6.452 5 5 6.576 5 8.597c0 2.465 2.04 4.486 5.13 7.54L11 17l.87-.863c3.09-3.054 5.13-5.075 5.13-7.54C17 6.576 15.548 5 13.7 5Z" fill="#003B95"/><path d="M11.555 14.322 12 15l1.5-1.5c-2.613-2.584 1-5.569 1-7.301 0-1.199-6.575 0-5.475 0 .847 0 2.981 7.688 3.272 8.503l-.286-7.088c.292-.816 1.117-1.415 1.964-1.415C15.075 6.199 10 9.3 10 10.5c0 1.732 4.173 1.238 1.555 3.822ZM13.975 5c-.957 0-1.875.486-2.475 1.247C10.9 5.486 9.982 5 9.025 5 7.331 5 6 6.445 6 8.297c0 2.26 1.87 4.112 4.703 6.912L11.5 16l.797-.791C15.13 12.409 17 10.557 17 8.297 17 6.445 15.669 5 13.975 5Z" fill="#003B95"/><path d="M11.555 14.322 12 15l1.5-1.5c-2.613-2.584 1-5.569 1-7.301 0-1.199-6.575 0-5.475 0 .847 0 2.981 7.688 3.272 8.503l-.286-7.088c.292-.816 1.117-1.415 1.964-1.415C15.075 6.199 10 9.3 10 10.5c0 1.732 4.173 1.238 1.555 3.822ZM13.975 5c-.957 0-1.875.486-2.475 1.247C10.9 5.486 9.982 5 9.025 5 7.331 5 6 6.445 6 8.297c0 2.26 1.87 4.112 4.703 6.912L11.5 16l.797-.791C15.13 12.409 17 10.557 17 8.297 17 6.445 15.669 5 13.975 5Z" fill="#003B95"/></svg>