<svg width="29" height="29" fill="none" xmlns="http://www.w3.org/2000/svg"><path d="m14.645 24.575-.145.158-.16-.158C7.454 17.764 2.9 13.259 2.9 8.692c0-3.16 2.175-5.531 5.075-5.531 2.233 0 4.408 1.58 5.177 3.73h2.697c.768-2.15 2.943-3.73 5.176-3.73 2.9 0 5.075 2.37 5.075 5.531 0 4.567-4.553 9.072-11.455 15.883ZM21.025 0c-2.523 0-4.944 1.28-6.525 3.287C12.92 1.28 10.498 0 7.975 0 3.509 0 0 3.809 0 8.692c0 5.958 4.93 10.841 12.398 18.222L14.5 29l2.102-2.086C24.07 19.534 29 14.65 29 8.692 29 3.81 25.491 0 21.025 0Z" fill="#F5F5F5"/><rect x="1.682" y="4.361" width="25.109" height="12.894" rx="4.75" fill="#F5F5F5"/><rect x="8.469" y="5.039" width="12.215" height="19.68" rx="4.75" fill="#F5F5F5"/><rect x="2.361" y="3.004" width="12.215" height="12.215" rx="4.75" fill="#F5F5F5"/><rect x="15.254" y="3.004" width="12.215" height="12.215" rx="4.75" fill="#F5F5F5"/><rect x="22.711" y="8.434" width="12.215" height="16.965" rx="4.75" transform="rotate(88.278 22.71 8.434)" fill="#F5F5F5"/><path d="m14.645 24.575-.145.158-.16-.158C7.454 17.764 2.9 13.259 2.9 8.692c0-3.16 2.175-5.531 5.075-5.531 2.233 0 4.408 1.58 5.177 3.73h2.697c.768-2.15 2.943-3.73 5.176-3.73 2.9 0 5.075 2.37 5.075 5.531 0 4.567-4.553 9.072-11.455 15.883ZM21.025 0c-2.523 0-4.944 1.28-6.525 3.287C12.92 1.28 10.498 0 7.975 0 3.509 0 0 3.809 0 8.692c0 5.958 4.93 10.841 12.398 18.222L14.5 29l2.102-2.086C24.07 19.534 29 14.65 29 8.692 29 3.81 25.491 0 21.025 0Z" fill="#F5F5F5"/><rect x="22.711" y="8.434" width="12.215" height="16.965" rx="4.75" transform="rotate(88.278 22.71 8.434)" fill="#F5F5F5"/></svg>