<svg width="22" height="22" fill="none" xmlns="http://www.w3.org/2000/svg"><path d="m11.107 18.49-.107.117-.118-.117C5.806 13.436 2.45 10.094 2.45 6.706c0-2.345 1.603-4.104 3.74-4.104 1.646 0 3.25 1.172 3.816 2.767h1.988c.566-1.595 2.17-2.767 3.815-2.767 2.138 0 3.741 1.759 3.741 4.104 0 3.388-3.356 6.73-8.443 11.784ZM15.809.257c-1.86 0-3.644.95-4.809 2.439C9.835 1.206 8.05.256 6.19.256 2.9.257.313 3.084.313 6.707c0 4.42 3.634 8.043 9.138 13.519L11 21.773l1.55-1.548c5.504-5.476 9.137-9.099 9.137-13.52 0-3.622-2.586-6.448-5.878-6.448Z" fill="#1E1D1B" fill-opacity=".9"/></svg>