<svg width="39" height="32" fill="none" xmlns="http://www.w3.org/2000/svg"><path d="M4-.004a2.405 2.405 0 0 0-2.4 2.4v11.05c1.038-.9 2.35-1.628 4-2.2v-3.25c0-2.128 3.634-2.4 6.8-2.4s6.8.272 6.8 2.4v1.6c.269-.003.525 0 .8 0s.531-.003.8 0v-1.6c0-2.128 3.634-2.4 6.8-2.4s6.8.272 6.8 2.4v3.225c1.647.569 2.953 1.313 4 2.225V2.396c0-1.322-1.078-2.4-2.4-2.4H4Zm16 11.2c-15.275 0-20.012 2.825-20 10.4h40c.013-7.625-4.725-10.4-20-10.4Zm-20 12v8.8h5.6v-3.2c0-1.15.45-1.6 1.6-1.6h25.6c1.15 0 1.6.45 1.6 1.6v3.2H40v-8.8H0Z" fill="#1E1D1B"/></svg>