<svg width="30" height="35" fill="none" xmlns="http://www.w3.org/2000/svg"><path d="M9.225 31.398A7.33 7.33 0 0 0 15 34.182a7.33 7.33 0 0 0 5.776-2.784c-3.834.52-7.718.52-11.552 0Z" fill="#F5F5F5"/><path d="M25.686 15.072v1.114c0 1.338.382 2.646 1.098 3.76l1.753 2.727c1.602 2.492.379 5.879-2.407 6.667a40.84 40.84 0 0 1-22.26 0c-2.786-.788-4.009-4.175-2.407-6.666l1.754-2.729a6.957 6.957 0 0 0 1.097-3.759v-1.114C4.314 8.95 9.098 3.988 15 3.988S25.686 8.95 25.686 15.072Z" fill="#F5F5F5"/><rect x="13" y=".822" width="3" height="6" rx="1.5" fill="#F5F5F5"/></svg>