<svg width="24" height="24" fill="none" xmlns="http://www.w3.org/2000/svg"><path d="M19.834 15.626a1.042 1.042 0 1 0 0-2.083 1.042 1.042 0 0 0 0 2.083Z" fill="#1E1D1B"/><path fill-rule="evenodd" clip-rule="evenodd" d="M16.474 1.028a3.125 3.125 0 0 1 3.988 2.43l.347 1.907a3.126 3.126 0 0 1 2.15 2.97v2.88A3.117 3.117 0 0 1 24 13.543v2.083c0 .925-.402 1.757-1.041 2.33v2.878c0 1.726-1.4 3.125-3.125 3.125H3.167a3.125 3.125 0 0 1-3.125-3.125v-12.5a3.126 3.126 0 0 1 2.605-3.082l13.827-4.225Zm4.401 15.64c.576 0 1.042-.466 1.042-1.041v-2.084c0-.575-.466-1.041-1.042-1.041H17.75c-.575 0-1.041.466-1.041 1.041v2.084c0 .575.466 1.042 1.041 1.042h3.125Zm0 2.084v2.083c0 .575-.466 1.042-1.041 1.042H3.167a1.042 1.042 0 0 1-1.042-1.042v-12.5c0-.575.467-1.042 1.042-1.042h16.667c.573 0 1.037.463 1.041 1.035v2.09H17.75a3.125 3.125 0 0 0-3.125 3.126v2.083c0 1.726 1.4 3.125 3.125 3.125h3.125Zm-2.4-14.993.256 1.451H9.417l7.732-2.268a1.042 1.042 0 0 1 1.326.817Z" fill="#1E1D1B"/></svg>