<svg width="39" height="39" fill="none" xmlns="http://www.w3.org/2000/svg"><path d="M33.031 29.609v-17.47a2.845 2.845 0 0 0-1.949-2.704l-16.09-5.363a1.423 1.423 0 0 0-1.281.199 1.422 1.422 0 0 0-.598 1.152V29.61h-5.69a1.423 1.423 0 0 0 0 2.845H33.03a1.423 1.423 0 0 0 0-2.845Z" fill="#1E1D1B" fill-opacity=".8"/><path d="M12.733 12.922H9.387c-.592 0-1.159.268-1.577.747a2.745 2.745 0 0 0-.654 1.802v14.022c0 .338.118.663.327.902.21.239.493.373.789.373h4.461c.296 0 .58-.134.789-.373.209-.24.327-.564.327-.902V14.197c0-.338-.118-.663-.327-.902a1.05 1.05 0 0 0-.789-.373Z" fill="url(#a)" fill-opacity=".8"/><path d="M25.131 21.074h-5.69a1.423 1.423 0 0 0-1.423 1.423v7.113h8.536v-7.113a1.423 1.423 0 0 0-1.423-1.423Z" fill="url(#b)"/><defs><linearGradient id="a" x1="10.502" y1="12.922" x2="10.502" y2="30.768" gradientUnits="userSpaceOnUse"><stop stop-color="#fff"/><stop offset="1" stop-color="#0D57BD"/></linearGradient><linearGradient id="b" x1="22.286" y1="21.074" x2="22.286" y2="29.61" gradientUnits="userSpaceOnUse"><stop stop-color="#fff"/><stop offset="1" stop-color="#0D57BD"/></linearGradient></defs></svg>