<svg width="38" height="39" fill="none" xmlns="http://www.w3.org/2000/svg"><g clip-path="url(#a)"><path opacity=".4" d="M30.605 8.394 9.08 29.918a1.848 1.848 0 0 1-2.823-.257c-2.273-3.318-3.612-7.242-3.612-11.275v-8.048c0-1.504 1.137-3.209 2.53-3.777l10.212-4.18a9.387 9.387 0 0 1 7.187 0l7.407 3.025c1.228.495 1.54 2.072.623 2.988Z" fill="#1E1D1B"/><path d="M32.328 10.907c1.191-1.008 3.006-.147 3.006 1.412v6.068c0 8.965-6.508 17.362-15.4 19.818a3.664 3.664 0 0 1-1.888 0 20.718 20.718 0 0 1-7.095-3.575 1.843 1.843 0 0 1-.202-2.75c3.997-4.088 15.694-16.005 21.579-20.973Z" fill="#083E92"/></g><defs><clipPath id="a"><path fill="#fff" d="M0 0h38v39H0z"/></clipPath></defs></svg>