<svg width="33" height="33" fill="none" xmlns="http://www.w3.org/2000/svg"><path fill-rule="evenodd" clip-rule="evenodd" d="M26.29 19.82A13.12 13.12 0 0 1 7.514 31.66a2.74 2.74 0 0 0-1.886-.213l-2.013.54a2.132 2.132 0 0 1-2.609-2.611l.538-2.012a2.739 2.739 0 0 0-.213-1.886 13.12 13.12 0 1 1 24.96-5.658ZM7.43 21.46a1.64 1.64 0 1 0 0-3.28 1.64 1.64 0 0 0 0 3.28Zm5.74 0a1.64 1.64 0 1 0 0-3.281 1.64 1.64 0 0 0 0 3.28Zm5.74 0a1.64 1.64 0 1 0 0-3.281 1.64 1.64 0 0 0 0 3.28Z" fill="#F5F5F5"/><path opacity=".7" d="M25.966 20.655c.177-.073.352-.15.525-.233.477-.23 1.02-.31 1.531-.172l1.634.438a1.732 1.732 0 0 0 2.122-2.122l-.438-1.634a2.227 2.227 0 0 1 .172-1.533 10.66 10.66 0 1 0-19.473-8.67 13.12 13.12 0 0 1 13.929 13.928" fill="url(#a)"/><defs><linearGradient id="a" x1="11.001" y1="-1.176" x2="34.501" y2="27.324" gradientUnits="userSpaceOnUse"><stop offset=".36" stop-color="#fff"/><stop offset="1" stop-color="#1054B6"/></linearGradient></defs></svg>