<svg width="19" height="21" fill="none" xmlns="http://www.w3.org/2000/svg"><g clip-path="url(#a)"><path d="M5.33 7.323H3.17c-.38 0-.747.174-1.017.482-.27.308-.421.727-.421 1.163v9.045c0 .218.076.427.21.581.135.155.318.241.51.241h2.877c.191 0 .374-.086.51-.24a.886.886 0 0 0 .21-.582V8.146a.885.885 0 0 0-.21-.582.677.677 0 0 0-.51-.24Z" fill="url(#b)" fill-opacity=".8"/><path d="M18.423 18.086V6.816a1.835 1.835 0 0 0-1.258-1.744l-10.38-3.46a.918.918 0 0 0-.825.129.918.918 0 0 0-.386.743v15.602h-3.67a.918.918 0 0 0 0 1.836h16.519a.918.918 0 0 0 0-1.836Z" fill="#1E1D1B" fill-opacity=".8"/><path d="M13.327 12.58H9.656a.918.918 0 0 0-.918.918v4.589h5.506v-4.59a.918.918 0 0 0-.917-.917Z" fill="url(#c)"/></g><defs><linearGradient id="b" x1="3.89" y1="7.323" x2="3.89" y2="18.835" gradientUnits="userSpaceOnUse"><stop stop-color="#fff"/><stop offset="1" stop-color="#0D57BD"/></linearGradient><linearGradient id="c" x1="11.491" y1="12.58" x2="11.491" y2="18.087" gradientUnits="userSpaceOnUse"><stop stop-color="#fff"/><stop offset="1" stop-color="#0D57BD"/></linearGradient><clipPath id="a"><path fill="#fff" transform="translate(.293 .848)" d="M0 0h18.707v20.146H0z"/></clipPath></defs></svg>