<?xml version="1.0" encoding="utf-8"?><svg viewBox="0 0 113 49" xmlns="http://www.w3.org/2000/svg" xmlns:xlink="http://www.w3.org/1999/xlink"><style>:root>svg{display:none}:root>svg:target{display:block}</style><svg fill="none" viewBox="0 0 8 14" id="button-slider" xmlns="http://www.w3.org/2000/svg"><path d="M.944 7.476a.837.837 0 0 1 0-1.184L6.272.964a.837.837 0 1 1 1.184 1.184L2.72 6.884l4.736 4.736a.837.837 0 1 1-1.184 1.184L.944 7.476Zm1.429.245h-.837V6.047h.837V7.72Z" fill="#fff"/></svg><svg fill="none" viewBox="0 0 33 23" id="icon-add-companion" xmlns="http://www.w3.org/2000/svg"><g clip-path="url(#aba)" fill="#02409E"><path d="M30.572 17.728c-.83-1.476-2.19-3.147-4.403-4.097a7.759 7.759 0 0 1-4.462 1.407 7.76 7.76 0 0 1-4.463-1.407c-2.213.95-3.573 2.622-4.402 4.097-1.102 1.957-.238 4.727 1.666 4.727h14.398c1.904 0 2.768-2.77 1.666-4.727Zm-8.865-4.543a5.887 5.887 0 0 0 5.886-5.887v-1.41a5.887 5.887 0 1 0-11.774 0v1.41a5.887 5.887 0 0 0 5.888 5.887Z"/></g><path d="M6.5 15.438V10.94m0 0v-4.5m0 4.5H11m-4.5 0H2" stroke="#02409E" stroke-width="3" stroke-linecap="round" stroke-linejoin="round"/><defs><clipPath id="aba"><path fill="#fff" transform="translate(10.481)" d="M0 0h22.453v22.453H0z"/></clipPath></defs></svg><svg fill="none" viewBox="0 0 50 33" id="icon-airline" xmlns="http://www.w3.org/2000/svg"><path fill-rule="evenodd" clip-rule="evenodd" d="M34.648 20.935h9.063a5.6 5.6 0 0 0 3.985-1.672 5.743 5.743 0 0 0 1.65-4.035 5.743 5.743 0 0 0-1.65-4.035 5.6 5.6 0 0 0-3.985-1.671H12.417a2.23 2.23 0 0 1-1.185-.342 2.272 2.272 0 0 1-.83-.92l-1.01-2.041a2.272 2.272 0 0 0-.831-.921 2.234 2.234 0 0 0-1.185-.342H3.172c-.374 0-.741.093-1.07.272a2.265 2.265 0 0 0-.814.754 2.301 2.301 0 0 0-.19 2.156l4.83 11.413c.175.411.464.761.833 1.007.368.246.8.377 1.242.377h8.708c.368 0 .73.091 1.056.266.325.175.603.428.81.737a2.3 2.3 0 0 1 .226 2.126l-2.031 5.157a2.308 2.308 0 0 0 .227 2.123c.206.309.484.561.808.736.325.175.687.267 1.055.268h4.603c.338 0 .672-.077.977-.225a2.26 2.26 0 0 0 .784-.631l7.664-9.701a2.26 2.26 0 0 1 .783-.631 2.23 2.23 0 0 1 .975-.225Zm-15.845-13.9 9.983.66-3.56-6.39a2.262 2.262 0 0 0-.796-.673 2.232 2.232 0 0 0-1.008-.24H19.18a2.236 2.236 0 0 0-1.918 1.082 2.302 2.302 0 0 0-.098 2.22l1.639 3.342Z" fill="url(#aca)"/><defs><linearGradient id="aca" x1="31.527" y1="27.782" x2="49.326" y2=".378" gradientUnits="userSpaceOnUse"><stop offset=".239" stop-color="#F6F6F6"/><stop offset=".926" stop-color="#1056B9"/></linearGradient></defs></svg><svg fill="none" viewBox="0 0 35 36" id="icon-apartments" xmlns="http://www.w3.org/2000/svg"><path d="M34.15 12.475 18.819 1.53a1.917 1.917 0 0 0-2.224 0L1.261 12.475a1.917 1.917 0 0 0 2.223 3.105l.805-.575V33.75a1.917 1.917 0 0 0 1.917 1.916h23a1.917 1.917 0 0 0 1.916-1.916V15.005l.805.575c.324.234.713.361 1.112.364a1.916 1.916 0 0 0 1.112-3.47Z" fill="#F6F6F6"/><path d="M33.04 35.667H2.372a1.917 1.917 0 1 1 0-3.834h30.666a1.917 1.917 0 1 1 0 3.834Z" fill="#F6F6F6"/><path d="M23.456 22.25v11.5a1.917 1.917 0 0 1-1.917 1.917h-7.666a1.917 1.917 0 0 1-1.917-1.917v-11.5a1.917 1.917 0 0 1 1.917-1.916h7.666a1.917 1.917 0 0 1 1.917 1.916Z" fill="url(#ada)"/><defs><linearGradient id="ada" x1="21.338" y1="20.733" x2="21.338" y2="35.862" gradientUnits="userSpaceOnUse"><stop offset=".2" stop-color="#1E1D1B" stop-opacity=".41"/><stop offset="1" stop-color="#0D57BD"/></linearGradient></defs></svg><svg fill="none" viewBox="0 0 17 9" id="icon-arrow-detailed-hero" xmlns="http://www.w3.org/2000/svg"><path d="M16.808 4.949a.57.57 0 0 0 0-.808L13.176.51a.57.57 0 1 0-.807.807l3.228 3.229-3.228 3.229a.57.57 0 0 0 .807.807l3.632-3.632ZM.423 5.116h15.982V3.974H.423v1.142Z" fill="#003B95"/></svg><svg fill="none" viewBox="0 0 17 9" id="icon-arrow-detailed-hero-white" xmlns="http://www.w3.org/2000/svg"><path d="M16.808 4.949a.57.57 0 0 0 0-.808L13.175.51a.57.57 0 1 0-.807.807l3.23 3.229-3.23 3.229a.57.57 0 0 0 .807.807l3.633-3.632ZM.422 5.116h15.982V3.974H.422v1.142Z" fill="#fff"/></svg><svg fill="none" viewBox="0 0 5 8" id="icon-arrow-small" xmlns="http://www.w3.org/2000/svg"><path d="M4.4 4.712a.472.472 0 0 0 0-.667L1.398 1.043a.472.472 0 1 0-.667.668l2.668 2.668L.73 7.047a.472.472 0 0 0 .667.667L4.4 4.712Zm-.57.139h.236v-.944H3.83v.944Z" fill="currentColor"/></svg><svg fill="none" viewBox="0 0 7 12" id="icon-arrow-travel-blog" xmlns="http://www.w3.org/2000/svg"><path d="M6.763 6.414a.75.75 0 0 0 0-1.06L1.99.58A.75.75 0 1 0 .93 1.641l4.242 4.243-4.243 4.242a.75.75 0 0 0 1.06 1.061l4.774-4.773Zm-1.367.22h.837v-1.5h-.837v1.5Z" fill="#fff"/></svg><svg fill="none" viewBox="0 0 54 48" id="icon-bank-card" xmlns="http://www.w3.org/2000/svg"><path d="M24.375 39.75h-12.6c-2.94 0-4.41 0-5.533-.572a5.246 5.246 0 0 1-2.295-2.294c-.572-1.123-.572-2.593-.572-5.534V11.4c0-2.94 0-4.41.572-5.533a5.254 5.254 0 0 1 2.295-2.295C7.365 3 8.835 3 11.775 3h30.45c2.94 0 4.41 0 5.533.572a5.253 5.253 0 0 1 2.295 2.295c.572 1.123.572 2.593.572 5.533v9.975M3.375 13.5h47.25M42.75 45V29.25m7.875 7.877-15.75-.002" stroke="#02409E" stroke-width="5.25" stroke-linecap="round" stroke-linejoin="round"/></svg><svg fill="none" viewBox="0 0 40 39" id="icon-bed" xmlns="http://www.w3.org/2000/svg"><g clip-path="url(#aja)"><path d="M4 2.996a2.405 2.405 0 0 0-2.4 2.4v11.05c1.038-.9 2.35-1.628 4-2.2v-3.25c0-2.128 3.634-2.4 6.8-2.4s6.8.272 6.8 2.4v1.6c.269-.003.525 0 .8 0s.531-.003.8 0v-1.6c0-2.128 3.634-2.4 6.8-2.4s6.8.272 6.8 2.4v3.225c1.647.569 2.953 1.313 4 2.225V5.396c0-1.322-1.078-2.4-2.4-2.4H4Zm16 11.2c-15.275 0-20.012 2.825-20 10.4h40c.013-7.625-4.725-10.4-20-10.4Zm-20 12v8.8h5.6v-3.2c0-1.15.45-1.6 1.6-1.6h25.6c1.15 0 1.6.45 1.6 1.6v3.2H40v-8.8H0Z" fill="#1E1D1B"/></g><defs><clipPath id="aja"><path fill="#fff" d="M0 0h40v39H0z"/></clipPath></defs></svg><svg fill="none" viewBox="0 0 45 22" id="icon-burger" xmlns="http://www.w3.org/2000/svg"><path fill="#fff" d="M0 0h44.11v2.036H0zm0 9.5h44.11v2.036H0zM0 19h44.11v2.036H0z"/></svg><svg fill="none" viewBox="0 0 32 32" id="icon-car" xmlns="http://www.w3.org/2000/svg"><path d="M5.838 24.767h1.229c.77 0 1.375-.594 1.375-1.365v-1.75c2.313.146 5.657.25 8.334.25 2.688 0 6.032-.104 8.344-.25v1.75c0 .771.594 1.365 1.375 1.365h1.23c.781 0 1.385-.594 1.385-1.365v-6.01c0-1.75-.354-2.74-1.323-3.99l-.875-1.136c-.385-1.875-1.073-3.844-1.438-4.615-.552-1.177-1.635-1.875-3.02-2.063-.698-.083-2.98-.146-5.678-.146-2.688 0-4.97.073-5.667.146-1.386.167-2.469.886-3.021 2.063-.365.77-1.052 2.74-1.438 4.615L5.775 13.4c-.969 1.25-1.323 2.24-1.323 3.99v6.011c0 .771.604 1.365 1.386 1.365ZM8.755 11.4c.25-1.146.75-2.635 1.093-3.24.282-.49.584-.698 1.146-.77.792-.115 2.563-.178 5.782-.178 3.23 0 5 .042 5.792.177.552.084.854.282 1.146.771.354.594.823 2.094 1.094 3.24.094.386-.063.531-.469.5-1.73-.104-3.792-.219-7.563-.219-3.76 0-5.823.115-7.553.22-.406.03-.552-.115-.468-.5Zm.427 7.803c-.99 0-1.73-.75-1.73-1.73 0-.99.74-1.729 1.73-1.729s1.729.74 1.729 1.73c0 .979-.74 1.729-1.73 1.729Zm15.199 0c-.99 0-1.73-.75-1.73-1.73 0-.99.74-1.729 1.73-1.729.979 0 1.73.74 1.73 1.73a1.7 1.7 0 0 1-1.73 1.729Zm-10.366-.48c-.729 0-1.24-.52-1.24-1.25 0-.739.511-1.25 1.24-1.25h5.532c.73 0 1.24.511 1.24 1.25 0 .73-.51 1.25-1.24 1.25h-5.532Z" fill="#1E1D1B"/></svg><svg fill="none" viewBox="0 0 29 29" id="icon-chosen" xmlns="http://www.w3.org/2000/svg"><path d="m14.645 24.575-.145.158-.16-.158C7.454 17.764 2.9 13.259 2.9 8.692c0-3.16 2.175-5.531 5.075-5.531 2.233 0 4.408 1.58 5.177 3.73h2.697c.768-2.15 2.943-3.73 5.176-3.73 2.9 0 5.075 2.37 5.075 5.531 0 4.567-4.553 9.072-11.455 15.883ZM21.025 0c-2.523 0-4.944 1.28-6.525 3.287C12.92 1.28 10.498 0 7.975 0 3.509 0 0 3.809 0 8.692c0 5.958 4.93 10.841 12.398 18.222L14.5 29l2.102-2.086C24.07 19.534 29 14.65 29 8.692 29 3.81 25.491 0 21.025 0Z" fill="#F5F5F5"/><rect x="1.682" y="4.36" width="25.109" height="12.894" rx="4.75" fill="#F5F5F5"/><rect x="8.468" y="5.039" width="12.215" height="19.68" rx="4.75" fill="#F5F5F5"/><rect x="2.36" y="3.003" width="12.215" height="12.215" rx="4.75" fill="#F5F5F5"/><rect x="15.254" y="3.003" width="12.215" height="12.215" rx="4.75" fill="#F5F5F5"/><rect x="22.711" y="8.433" width="12.215" height="16.965" rx="4.75" transform="rotate(88.278 22.711 8.433)" fill="#F5F5F5"/></svg><svg viewBox="0 0 14 14" id="icon-cross" xmlns="http://www.w3.org/2000/svg"><path fill-rule="evenodd" clip-rule="evenodd" d="m8.414 7 5.293-5.293A.999.999 0 1 0 12.293.293L7 5.586 1.707.293A.999.999 0 1 0 .293 1.707L5.586 7 .293 12.293a.999.999 0 1 0 1.414 1.414L7 8.414l5.293 5.293a.997.997 0 0 0 1.414 0 .999.999 0 0 0 0-1.414L8.414 7Z" fill="currentColor"/></svg><svg fill="none" viewBox="0 0 19 18" id="icon-date" xmlns="http://www.w3.org/2000/svg"><path d="M16.784 2.079H14.55v-.894a.97.97 0 0 0-.967-.967.97.97 0 0 0-.967.967v.894H6.298v-.894A.97.97 0 0 0 5.33.218a.97.97 0 0 0-.967.967v.894H2.129c-.916 0-1.66.744-1.66 1.66v12.26c0 .916.744 1.66 1.66 1.66H15.3a3.146 3.146 0 0 0 3.143-3.142V3.739c0-.916-.744-1.66-1.66-1.66ZM2.13 3.402h2.236a.97.97 0 0 0 .966.943.97.97 0 0 0 .965-.943h6.32a.97.97 0 0 0 .966.943.97.97 0 0 0 .966-.943h2.236a.34.34 0 0 1 .337.337v2.584H1.792V3.74c0-.183.154-.337.337-.337ZM1.792 16V7.626h15.329v5.8h-2.704l-.02 2.91H2.129A.341.341 0 0 1 1.792 16Zm13.929.285.01-1.536h1.373a1.822 1.822 0 0 1-1.383 1.536Z" fill="#1E1D1B"/></svg><svg fill="none" viewBox="0 0 24 24" id="icon-food" xmlns="http://www.w3.org/2000/svg"><path d="m4.608 20.183 5.138-5.114 1.67 2.106-4.707 4.784c-1.232 1.55-3.512-.083-2.101-1.776Zm5.75-10.706c.348-1.122.188-2.08-1.118-3.505L6.048 2.174c-.453-.526-1.52.247-1.074.884l2.553 3.11c.482.58-.415 1.348-.913.75l-2.64-3.215c-.492-.558-1.509.179-.994.816.744.886 1.896 2.332 2.64 3.218a.51.51 0 0 1-.778.64l-2.62-3.195c-.385-.413-1.014-.156-1.18.327-.18.515.261.892.561 1.274l2.925 3.738c.908 1.04 1.922 1.656 3.102 1.307a2.92 2.92 0 0 0 .64-.307l8.601 10.77c.423.54 1.24.597 1.77.162l.12-.1c.598-.49.694-1.389.183-1.969L9.88 10.191c.242-.268.42-.521.48-.714Zm2.225 2.188 1.293-1.552C12.213 6.03 18.38.593 21.37 3.093c3.633 3.04-1.766 10.37-5.56 8.558l-1.532 1.926-1.694-1.912Z" fill="#1E1D1B"/></svg><svg fill="none" viewBox="0 0 32 32" id="icon-food-search-page" xmlns="http://www.w3.org/2000/svg"><path d="m8.848 24.331 5.138-5.114 1.67 2.107-4.706 4.784c-1.233 1.549-3.513-.084-2.102-1.777Zm5.75-10.706c.348-1.121.188-2.08-1.118-3.504l-3.19-3.798c-.453-.526-1.52.246-1.075.884l2.553 3.11c.483.58-.415 1.348-.913.75l-2.64-3.216c-.492-.557-1.509.179-.994.816.744.886 1.896 2.333 2.64 3.218a.51.51 0 0 1-.777.641L6.46 9.331c-.384-.414-1.013-.157-1.18.326-.178.516.262.893.562 1.275l2.925 3.737c.908 1.04 1.923 1.657 3.102 1.308.181-.054.402-.164.64-.308l8.601 10.77c.423.54 1.24.598 1.77.162l.121-.099c.597-.491.694-1.39.183-1.97L14.119 14.34c.243-.267.42-.52.48-.714Zm2.225 2.188 1.294-1.552c-1.665-4.081 4.503-9.52 7.493-7.02 3.632 3.041-1.767 10.37-5.56 8.559l-1.533 1.925-1.694-1.912Z" fill="#1E1D1B"/></svg><svg fill="none" viewBox="0 0 24 24" id="icon-heart" xmlns="http://www.w3.org/2000/svg"><path d="m11.675 19.591-.115.126-.128-.126c-5.49-5.43-9.12-9.02-9.12-12.662 0-2.52 1.734-4.41 4.046-4.41 1.78 0 3.514 1.26 4.127 2.974h2.15C13.247 3.78 14.98 2.52 16.76 2.52c2.312 0 4.046 1.89 4.046 4.41 0 3.64-3.63 7.231-9.132 12.661ZM16.761 0C14.75 0 12.82 1.02 11.56 2.62 10.3 1.02 8.37 0 6.358 0 2.798 0 0 3.036 0 6.93c0 4.75 3.93 8.642 9.883 14.526l1.677 1.663 1.676-1.663c5.953-5.884 9.883-9.777 9.883-14.527C23.12 3.036 20.322 0 16.761 0Z" fill="#003B95"/><rect x="1.341" y="3.477" width="20.017" height="10.279" rx="3.787" fill="#003B95"/><rect x="6.75" y="4.017" width="9.738" height="15.689" rx="3.787" fill="#003B95"/><rect x="1.881" y="2.395" width="9.738" height="9.738" rx="3.787" fill="#003B95"/><rect x="12.161" y="2.395" width="9.738" height="9.738" rx="3.787" fill="#003B95"/><rect x="18.105" y="6.723" width="9.738" height="13.525" rx="3.787" transform="rotate(88.278 18.105 6.723)" fill="#003B95"/></svg><svg fill="none" viewBox="0 0 37 37" id="icon-hotel" xmlns="http://www.w3.org/2000/svg"><path d="M11.134 10.85H5.71a3.616 3.616 0 0 0-3.616 3.617V34.36A1.808 1.808 0 0 0 3.9 36.167h7.233a1.808 1.808 0 0 0 1.809-1.808v-21.7a1.809 1.809 0 0 0-1.809-1.808Z" fill="url(#asa)"/><path d="M34.642 32.55V10.345a3.617 3.617 0 0 0-2.477-3.436L11.713.091a1.808 1.808 0 0 0-1.628.253 1.809 1.809 0 0 0-.76 1.465V32.55H2.094a1.808 1.808 0 1 0 0 3.616h32.55a1.809 1.809 0 0 0 0-3.617Z" fill="#F6F6F6"/><path d="M24.6 21.7h-7.233a1.809 1.809 0 0 0-1.808 1.809v9.042h10.85v-9.042a1.808 1.808 0 0 0-1.808-1.808Z" fill="url(#asb)"/><defs><linearGradient id="asa" x1="7.518" y1="10.851" x2="7.518" y2="36.167" gradientUnits="userSpaceOnUse"><stop stop-color="#1E1D1B"/><stop offset="1" stop-color="#0D57BD"/></linearGradient><linearGradient id="asb" x1="20.984" y1="21.701" x2="20.984" y2="32.551" gradientUnits="userSpaceOnUse"><stop stop-color="#1E1D1B"/><stop offset="1" stop-color="#0D57BD"/></linearGradient></defs></svg><svg fill="none" viewBox="0 0 28 36" id="icon-location" xmlns="http://www.w3.org/2000/svg"><path d="M13.999 33.75c6.125-6.3 12.25-11.941 12.25-18.9 0-6.959-5.484-12.6-12.25-12.6-6.765 0-12.25 5.641-12.25 12.6s6.125 12.6 12.25 18.9Z" stroke="#003B95" stroke-width="2.644" stroke-linecap="round" stroke-linejoin="round"/><path d="M14 19.75a5.25 5.25 0 1 0 0-10.5 5.25 5.25 0 0 0 0 10.5Z" stroke="#003B95" stroke-width="2.644" stroke-linecap="round" stroke-linejoin="round"/></svg><svg fill="none" viewBox="0 0 25 27" id="icon-logout" xmlns="http://www.w3.org/2000/svg"><path d="M6.41.518C3.285.518.714 2.678.714 5.802v14.896c0 3.125 2.57 5.695 5.696 5.695h7.516c2.903 0 4.53-2.218 4.86-5.038h-2.763c-.268.905-1.083 2.574-2.097 2.574H6.41c-1.244 0-3.231-1.988-3.231-3.231V5.802c0-1.243 1.987-2.19 3.23-2.19h7.517c1.014 0 1.83.628 2.097 1.533h2.763c-.33-2.82-1.957-4.627-4.86-4.627H6.41Z" fill="#083E92"/><path d="M19.923 9.143a1.339 1.339 0 0 0-.946 2.285l.392.392H9.445a1.338 1.338 0 1 0 0 2.677h9.924l-.392.392a1.339 1.339 0 1 0 1.893 1.893l2.436-2.436a1.339 1.339 0 0 0 .738-1.188 1.339 1.339 0 0 0-.752-1.201L20.87 9.535a1.339 1.339 0 0 0-.947-.392Z" fill="#083E92"/></svg><svg fill="none" viewBox="0 0 33 23" id="icon-mail" xmlns="http://www.w3.org/2000/svg"><path d="M32.15 19.827V3.177A2.771 2.771 0 0 0 29.375.402H3.456A2.771 2.771 0 0 0 .681 3.177v16.65a2.771 2.771 0 0 0 2.775 2.775h25.919a2.771 2.771 0 0 0 2.775-2.775ZM29.726 2.974c.61.61.278 1.24-.055 1.554L22.16 11.41l7.215 7.51c.222.26.37.667.11.944-.24.296-.795.278-1.035.093l-8.085-6.9-3.959 3.607-3.94-3.608-8.085 6.9c-.24.186-.795.204-1.036-.092-.259-.277-.11-.684.111-.943l7.215-7.511-7.51-6.882c-.334-.315-.667-.944-.056-1.554.61-.61 1.24-.315 1.757.13l11.544 9.323L27.97 3.103c.518-.444 1.147-.74 1.757-.13Z" fill="#003B95"/></svg><svg fill="none" viewBox="0 0 21 27" id="icon-map" xmlns="http://www.w3.org/2000/svg"><path d="M10.5 25.125c4.52-4.65 9.041-8.814 9.041-13.95 0-5.136-4.048-9.3-9.042-9.3-4.993 0-9.041 4.164-9.041 9.3 0 5.136 4.52 9.3 9.041 13.95Z" stroke="#003B95" stroke-width="1.982" stroke-linecap="round" stroke-linejoin="round"/><path d="M10.5 14.791a3.875 3.875 0 1 0 0-7.75 3.875 3.875 0 0 0 0 7.75Z" stroke="#003B95" stroke-width="1.982" stroke-linecap="round" stroke-linejoin="round"/></svg><svg fill="none" viewBox="0 0 22 18" id="icon-map-settings" xmlns="http://www.w3.org/2000/svg"><rect y="1.572" width="14.143" height="1.571" rx=".786" fill="#003B95"/><rect y="7.855" width="7.857" height="1.571" rx=".786" fill="#003B95"/><rect y="14.143" width="12.571" height="1.571" rx=".786" fill="#003B95"/><rect x="14.143" y="14.143" width="7.857" height="1.571" rx=".786" fill="#003B95"/><rect x="14.143" y="17.283" width="4.714" height="1.571" rx=".786" transform="rotate(-90 14.143 17.283)" fill="#003B95"/><rect x="15.715" y="1.572" width="6.286" height="1.571" rx=".786" fill="#003B95"/><rect x="15.715" y="4.715" width="4.714" height="1.571" rx=".786" transform="rotate(-90 15.715 4.715)" fill="#003B95"/><rect x="9.429" y="7.855" width="12.571" height="1.571" rx=".786" fill="#003B95"/><rect x="9.429" y="10.998" width="4.714" height="1.571" rx=".786" transform="rotate(-90 9.429 10.998)" fill="#003B95"/></svg><svg fill="none" viewBox="0 0 24 24" id="icon-person" xmlns="http://www.w3.org/2000/svg"><path d="M20.166 21.125v-1.917a3.833 3.833 0 0 0-3.833-3.833H8.666a3.833 3.833 0 0 0-3.833 3.833v1.917m7.667-9.583a3.833 3.833 0 1 0 0-7.667 3.833 3.833 0 0 0 0 7.667Z" stroke="#1E1D1B" stroke-width="1.917" stroke-linecap="round" stroke-linejoin="round"/></svg><svg fill="none" viewBox="0 0 25 30" id="icon-phone" xmlns="http://www.w3.org/2000/svg"><path d="M8.685 1.226S8.363.198 7.72.133C7.087.07 6.728.329 6.489.508c-.24.18-4.216 2.83-4.216 2.83s-1.162.826-1.256 2.589c-.107 1.762-.014 4.294 1.419 7.952 1.42 3.648 5.316 9.396 7.927 11.541 0 0 2.393 2.248 4.724 3.298.678.291 2.05.719 2.377.752.332.033.918.092 1.64-.332.734-.428 4.88-3.13 4.88-3.13s1.025-.754.033-1.85c-.997-1.096-4.106-3.624-4.76-4.272-.655-.657-1.697-.502-2.176-.149-.477.356-1.326.935-1.43 1.008-.153.096-.581.412-1.002.191-.537-.277-2.704-1.751-4.538-4.871-1.821-3.117-1.958-4.09-2.17-5.147a.718.718 0 0 1 .37-.81c.34-.188 1.602-1.042 1.602-1.042s.829-.669.601-1.577c-.227-.908-1.829-6.263-1.829-6.263Z" fill="#003B95"/></svg><svg fill="none" viewBox="0 0 32 34" id="icon-railway" xmlns="http://www.w3.org/2000/svg"><path d="m24.914 29.904 3.075 2.562v.854H4.072v-.854l3.075-2.563H4.072a3.417 3.417 0 0 1-3.416-3.416V7.695A6.833 6.833 0 0 1 7.489.862h17.083a6.833 6.833 0 0 1 6.834 6.833v18.792a3.417 3.417 0 0 1-3.417 3.417h-3.075ZM4.072 7.695v6.833H27.99V7.695H4.072Zm11.959 18.792a3.417 3.417 0 1 0 0-6.834 3.417 3.417 0 0 0 0 6.834Z" fill="#F6F6F6"/></svg><svg fill="none" viewBox="0 0 16 17" id="icon-remove" xmlns="http://www.w3.org/2000/svg"><path d="m12.727 3.513-.671 10.062c-.059.881-.088 1.322-.279 1.656-.167.294-.42.53-.725.678-.346.168-.787.168-1.67.168H6.02c-.883 0-1.324 0-1.67-.168a1.675 1.675 0 0 1-.725-.678c-.19-.334-.22-.775-.279-1.656l-.67-10.062M1 3.513h13.402m-3.35 0-.227-.68c-.22-.66-.33-.989-.534-1.232a1.675 1.675 0 0 0-.672-.485C9.324 1 8.977 1 8.282 1H7.12c-.695 0-1.042 0-1.338.116a1.69 1.69 0 0 0-.672.485c-.203.243-.313.573-.533 1.232l-.227.68m5.026 3.35v5.864m-3.35-5.864v5.863" stroke="#003B95" stroke-width="1.5" stroke-linecap="round" stroke-linejoin="round"/></svg><svg fill="none" viewBox="0 0 28 28" id="icon-reviews-star" xmlns="http://www.w3.org/2000/svg"><path d="m13.857.974 3.257 10.023h10.538l-8.526 6.194 3.257 10.023-8.526-6.195-8.526 6.195L8.588 17.19.062 10.997h10.539L13.857.974Z" fill="#D9D9D9"/></svg><svg fill="none" viewBox="0 0 31 31" id="icon-ruler" xmlns="http://www.w3.org/2000/svg"><path fill-rule="evenodd" clip-rule="evenodd" d="M20.094 1.827a2.583 2.583 0 0 1 3.654 0l5.48 5.48a2.583 2.583 0 0 1 0 3.653L10.96 29.227a2.583 2.583 0 0 1-3.653 0l-5.48-5.48a2.583 2.583 0 0 1 0-3.653L20.093 1.827Zm.914 2.74a1.292 1.292 0 0 1 1.826 0l3.654 3.653a1.292 1.292 0 0 1 0 1.827l-.913-.913a1.292 1.292 0 1 0-1.827 1.826l.913.914-1.827 1.826-2.74-2.74a1.292 1.292 0 0 0-1.826 1.827l2.74 2.74-1.827 1.827-.913-.913a1.292 1.292 0 0 0-1.827 1.826l.913.913-1.826 1.827-2.74-2.74a1.292 1.292 0 0 0-1.827 1.827l2.74 2.74-1.827 1.827-.913-.914a1.292 1.292 0 0 0-1.827 1.827l.914.913a1.292 1.292 0 0 1-1.827 0l-3.654-3.653a1.292 1.292 0 0 1 0-1.827l16.44-16.44Z" fill="#003B95"/></svg><svg fill="none" viewBox="0 0 16 16" id="icon-search" xmlns="http://www.w3.org/2000/svg"><path d="M10.952 10.964 15 15m-2.333-8.167A5.833 5.833 0 1 1 1 6.833a5.833 5.833 0 0 1 11.667 0Z" stroke="#003B95" stroke-width="1.222" stroke-linecap="round" stroke-linejoin="round"/></svg><svg fill="none" viewBox="0 0 26 26" id="icon-settings" xmlns="http://www.w3.org/2000/svg"><path d="M17 13a4 4 0 1 1-8 0 4 4 0 0 1 8 0Z" stroke="#083E92" stroke-width="2.667" stroke-linecap="round" stroke-linejoin="round"/><path d="M14.206 1.08C13.932 1 13.621 1 13 1s-.932 0-1.206.08a2 2 0 0 0-1.014.687c-.177.225-.292.513-.523 1.09a1.687 1.687 0 0 1-2.099.974l-.76-.254c-.54-.18-.81-.27-1.075-.285a2 2 0 0 0-1.114.263c-.23.132-.43.333-.833.735-.428.428-.642.642-.777.886a2 2 0 0 0-.242 1.178c.028.278.14.559.365 1.12a1.93 1.93 0 0 1-.798 2.372l-.37.222c-.567.34-.85.51-1.056.744a2 2 0 0 0-.403.712C1 11.821 1 12.154 1 12.822c0 .79 0 1.185.126 1.523a2 2 0 0 0 .529.781c.267.243.63.388 1.357.679a1.51 1.51 0 0 1 .871 1.879l-.287.86c-.198.596-.298.895-.307 1.188a2 2 0 0 0 .239 1.01c.139.258.361.48.805.925.445.444.667.666.925.805a2 2 0 0 0 1.01.239c.293-.01.591-.109 1.188-.307l.702-.235a1.686 1.686 0 0 1 2.1.974c.23.577.345.865.522 1.09.258.33.612.57 1.014.687.274.08.585.08 1.206.08s.932 0 1.206-.08a2.001 2.001 0 0 0 1.014-.687c.177-.225.292-.513.523-1.09a1.686 1.686 0 0 1 2.099-.973l.702.234c.596.198.894.298 1.187.307a2 2 0 0 0 1.01-.239c.259-.139.48-.36.925-.805.444-.445.666-.667.806-.925a2 2 0 0 0 .238-1.01c-.009-.293-.108-.591-.307-1.188l-.287-.86a1.51 1.51 0 0 1 .872-1.88c.727-.29 1.09-.435 1.357-.678a2 2 0 0 0 .529-.78c.126-.34.126-.734.126-1.524 0-.668 0-1.001-.095-1.298a2.002 2.002 0 0 0-.403-.712c-.206-.234-.49-.404-1.056-.744l-.37-.222a1.93 1.93 0 0 1-.799-2.372c.225-.561.337-.842.366-1.12a2 2 0 0 0-.242-1.178c-.136-.244-.35-.458-.777-.886-.403-.402-.604-.603-.834-.736a2 2 0 0 0-1.113-.262c-.265.015-.535.105-1.075.285l-.76.253a1.686 1.686 0 0 1-2.1-.973c-.23-.577-.345-.865-.522-1.09a2 2 0 0 0-1.014-.687Z" stroke="#083E92" stroke-width="1.905" stroke-linecap="round" stroke-linejoin="round"/></svg><svg fill="none" viewBox="0 0 15 14" id="icon-square" xmlns="http://www.w3.org/2000/svg"><rect x="1.081" y="1.178" width="10.499" height="8.908" rx=".477" stroke="#1E1D1B" stroke-width=".637"/><path d="m13.989 10.404 1.005-1.742h-2.01l1.005 1.742Zm0-9.545-1.006 1.742h2.011L13.99.86Zm.174 7.978v-6.41h-.348v6.41h.348Zm-13.4 3.954 1.75.992-.016-2.011L.763 12.79Zm11.148-.086-1.75-.993.016 2.012 1.734-1.02Zm-9.58.248 8.014-.062-.003-.348-8.013.062.003.348Z" fill="#1E1D1B"/></svg><svg fill="none" viewBox="0 0 32 32" id="icon-stroller" xmlns="http://www.w3.org/2000/svg"><path d="M15.655 10.329a7.435 7.435 0 0 0-2.395-.392c-2.596 0-4.822 1.299-5.761 3.147h8.153v-2.755h.003Z" fill="#1E1D1B"/><path d="M9.758 20.744h13.228c2.012-1.71 3.28-4.187 3.28-6.944 0-4.896-3.99-8.913-9.067-9.308-.022-.003-.043-.003-.062-.003-.419 0-.765.327-.765.737v8.551H7.22c-.419.002-.746.343-.713.743.199 2.468 1.413 4.666 3.251 6.224Zm1.47 5.317c1.268 0 2.295-.99 2.295-2.21s-1.027-2.21-2.295-2.21c-1.267 0-2.294.99-2.294 2.21s1.027 2.21 2.294 2.21Zm9.95 0c1.268 0 2.295-.99 2.295-2.21s-1.027-2.21-2.294-2.21c-1.268 0-2.295.99-2.295 2.21s1.027 2.21 2.294 2.21Z" fill="#1E1D1B"/></svg><svg fill="none" viewBox="0 0 29 29" id="icon-tours" xmlns="http://www.w3.org/2000/svg"><path d="M22.328 22.111a2.817 2.817 0 0 0-2.668-1.951h-1.404v-4.213a1.404 1.404 0 0 0-1.405-1.404H8.426v-2.809h2.808a1.405 1.405 0 0 0 1.405-1.404V7.52h2.808a2.809 2.809 0 0 0 2.809-2.808v-.576a11.213 11.213 0 0 1 4.072 17.974Zm-9.69 3.567c-5.546-.688-9.83-5.406-9.83-11.135 0-.871.113-1.714.296-2.514l6.726 6.726v1.405a2.808 2.808 0 0 0 2.809 2.808M14.043.5a14.042 14.042 0 1 0 0 28.085 14.042 14.042 0 0 0 0-28.085Z" fill="url(#bia)"/><defs><linearGradient id="bia" x1="14.043" y1=".5" x2="34.021" y2="43.702" gradientUnits="userSpaceOnUse"><stop stop-color="#fff"/><stop offset="1" stop-color="#fff" stop-opacity="0"/></linearGradient></defs></svg><svg fill="none" viewBox="0 0 16 22" id="icon-up" xmlns="http://www.w3.org/2000/svg"><path d="M9.031.585a1.444 1.444 0 0 0-.477-.303 1.358 1.358 0 0 0-1.097 0c-.178.069-.34.172-.477.303L1.202 6.363a1.45 1.45 0 0 0 2.051 2.051l3.308-3.322v15.297a1.444 1.444 0 1 0 2.889 0V5.092l3.308 3.322a1.45 1.45 0 0 0 2.05-2.051L9.032.585Z" fill="currentColor"/></svg><svg fill="none" viewBox="0 0 24 24" id="icon-wallet" xmlns="http://www.w3.org/2000/svg"><path fill-rule="evenodd" clip-rule="evenodd" d="M16.775 1.131c1.717-.52 3.507.563 3.828 2.317l.333 1.82A2.983 2.983 0 0 1 23 8.098v2.746c.614.546 1 1.339 1 2.221v1.987a2.96 2.96 0 0 1-1 2.221v2.746A2.99 2.99 0 0 1 20 23H4a2.99 2.99 0 0 1-3-2.98V8.1a2.987 2.987 0 0 1 2.501-2.94l13.274-4.029ZM21 16.046c.552 0 1-.444 1-.993v-1.987a.997.997 0 0 0-1-.993h-3c-.552 0-1 .445-1 .993v1.987c0 .549.448.993 1 .993h3Zm0 1.987v1.987a.997.997 0 0 1-1 .993H4c-.552 0-1-.445-1-.993V8.1a.997.997 0 0 1 1-.994h16c.55 0 .996.441 1 .986v1.994h-3a2.99 2.99 0 0 0-3 2.98v1.987a2.99 2.99 0 0 0 3 2.98h3ZM18.695 3.736l.246 1.383H10l7.423-2.162a1 1 0 0 1 1.272.779Z" fill="#4CC538"/></svg><svg fill="none" viewBox="0 0 32 32" id="icon-wallet-black" xmlns="http://www.w3.org/2000/svg"><path d="M24.834 18.625a1.042 1.042 0 1 0 0-2.083 1.042 1.042 0 0 0 0 2.083Z" fill="#1E1D1B"/><path fill-rule="evenodd" clip-rule="evenodd" d="M21.474 4.026a3.125 3.125 0 0 1 3.988 2.43l.347 1.907a3.126 3.126 0 0 1 2.15 2.97v2.88A3.118 3.118 0 0 1 29 16.541v2.083c0 .925-.402 1.757-1.041 2.33v2.878c0 1.726-1.4 3.125-3.125 3.125H8.167a3.125 3.125 0 0 1-3.125-3.125v-12.5A3.126 3.126 0 0 1 7.647 8.25l13.827-4.225Zm4.401 15.64c.576 0 1.042-.466 1.042-1.041V16.54c0-.575-.466-1.041-1.042-1.041H22.75a1.04 1.04 0 0 0-1.041 1.041v2.084a1.04 1.04 0 0 0 1.041 1.041h3.125Zm0 2.084v2.083c0 .576-.466 1.042-1.041 1.042H8.167a1.042 1.042 0 0 1-1.042-1.042v-12.5c0-.575.467-1.042 1.042-1.042h16.667c.573 0 1.037.463 1.041 1.035v2.09H22.75a3.125 3.125 0 0 0-3.125 3.125v2.084c0 1.726 1.4 3.125 3.125 3.125h3.125Zm-2.4-14.993.256 1.451h-9.314l7.732-2.268a1.042 1.042 0 0 1 1.326.817Z" fill="#1E1D1B"/></svg><svg fill="none" viewBox="0 0 23 23" id="icon-white-person" xmlns="http://www.w3.org/2000/svg"><path d="M19.166 20.125v-1.917a3.833 3.833 0 0 0-3.833-3.833H7.666a3.833 3.833 0 0 0-3.833 3.833v1.917m7.667-9.583a3.833 3.833 0 1 0 0-7.667 3.833 3.833 0 0 0 0 7.667Z" stroke="#fff" stroke-width="1.917" stroke-linecap="round" stroke-linejoin="round"/></svg><svg fill="none" viewBox="0 0 24 24" id="icon-white-square" xmlns="http://www.w3.org/2000/svg"><rect x="1.5" y="2.5" width="16.481" height="13.983" rx=".749" stroke="#fff"/><path d="m21.762 16.984 1.578-2.734h-3.157l1.579 2.734Zm0-14.983-1.579 2.734h3.157l-1.578-2.734Zm.273 12.522V4.462h-.547v10.061h.547ZM1 20.729l2.747 1.557-.025-3.157L1 20.729Zm17.5-.136-2.746-1.558.024 3.158 2.722-1.6Zm-15.037.39 12.578-.098-.004-.547-12.578.098.004.547Z" fill="#fff"/></svg><svg fill="none" viewBox="0 0 32 32" id="icon-wifi" xmlns="http://www.w3.org/2000/svg"><path d="M12.23 19.14a5.532 5.532 0 0 1 8.064-.028m-10.49-3.341a8.851 8.851 0 0 1 12.902-.045m-16.14-2.973a13.276 13.276 0 0 1 19.355-.067m-9.646 11.333a1.106 1.106 0 1 1 0-2.213 1.106 1.106 0 0 1 0 2.213Z" stroke="#1E1D1B" stroke-width="1.904" stroke-linecap="round" stroke-linejoin="round"/></svg><svg fill="none" viewBox="0 0 14 24" id="icon_btn-controls-detailed-hero" xmlns="http://www.w3.org/2000/svg"><path d="M13.06 13.06a1.5 1.5 0 0 0 0-2.12L3.516 1.392a1.5 1.5 0 1 0-2.122 2.122L9.88 12l-8.486 8.485a1.5 1.5 0 1 0 2.122 2.122l9.546-9.546ZM11 13.5h1v-3h-1v3Z" fill="#003B95"/></svg><svg fill="none" viewBox="0 0 10 10" id="info-payment-arrow" xmlns="http://www.w3.org/2000/svg"><path d="M9.496.588A.507.507 0 0 0 8.99.08H4.423a.507.507 0 1 0 0 1.015h4.059v4.059a.507.507 0 0 0 1.014 0V.588ZM1.23 9.064 9.348.946 8.63.23.512 8.347l.718.717Z" fill="#F5F5F5"/></svg><svg fill="none" viewBox="0 0 113 49" id="logo" xmlns="http://www.w3.org/2000/svg"><path d="M10.377 39.594 0 39.58v-3.506c0-.814.147-1.48.44-1.996.291-.52.685-.905 1.181-1.155a3.643 3.643 0 0 1 1.662-.375c.612 0 1.167.125 1.667.375.5.246.899.628 1.196 1.145.294.517.44 1.179.44 1.986v2.513H5.473v-2.473c0-.557-.096-1.004-.289-1.342a1.722 1.722 0 0 0-.78-.735 2.604 2.604 0 0 0-1.12-.233 2.57 2.57 0 0 0-1.114.233 1.663 1.663 0 0 0-.77.74c-.19.341-.284.794-.284 1.358v2.209h9.262v1.271Zm0-8.438v1.317L0 28.663v-1.297l10.377-3.81v1.317l-8.735 3.101v.081l8.735 3.1Zm-4.054-.486v-5.31h1.115v5.31H6.323ZM0 23.89v-1.439l4.844-2.878v-.121L0 16.574v-1.44l6.1 3.75h4.277v1.257H6.1L0 23.89Z" fill="#86B3F3"/><mask id="bra" style="mask-type:alpha" maskUnits="userSpaceOnUse" x="24" y="9" width="33" height="33"><circle cx="40.607" cy="25.505" r="15.883" fill="#D9D9D9"/></mask><g mask="url(#bra)"><circle cx="40.617" cy="25.464" r="15.883" fill="#D9D9D9"/><path d="M57.28 29.573s.42 15.277-15.698 13.18c-4.863-.632-9.733-2.353-12.324-4.671-2.44-2.184-3.05-4.994-3.05-4.994l.29-.92-.29-1.714.29-1.07 15.998-1.932 1.89-1.236 5.049-.716c1.385.218 4.202.666 4.393.716.192.05 1.458 1.205 2.068 1.776l1.383 1.581Z" fill="#003B95"/><path d="M56.389 28.837c.134.12.196.196.196.196l-.197-.038v-.158c-.353-.315-1.21-.93-2.776-1.254-2.16-.447-4.747 0-5.858.976-1.112.977-2.338 3.19-5.09 4.872-2.753 1.683-6.427-1.752-7.393-2.188-.966-.436-2.519-.66-3.317-.762-.95-.12-2.43.312-2.43.312-1.33.374-3.023 2.015-3.023 2.015s-1.136-.999-1.536-2.099a9.162 9.162 0 0 1-.328-1.059c-.03-.132-.043-.261-.063-.386l-.002-.009c-.008-.049-.038-.097-.05-.145l-.001-.005-.005-.037-.033-.167c-.403-1.55.252-3.988.252-3.988 2.025-1.118 6.162-3.355 6.502-3.355h11.977l9.017.384h2.13l2.129 4.27-.102 2.183v.442Z" fill="#2D6ECB"/><path d="M24.463 24.913c.275-2.718.712-4.19 1.745-6.658l6.504-4.996 5.485-.966 9.91 2.825 6.987 3.101c.075.247.542 1.062.61 1.293.16.405.247.708.364 1.039.658 1.86.531 3.349.41 5.637 0 0-1.52-1.357-2.617-2.012-2.041-1.22-2.972-1.928-5.406-2.278-2.701-.39-3.783.3-6.317 1.315-2.525 1.012-4.106 3.155-6.683 4.027-2.526.855-4.27 1.2-6.815.405-1.889-.59-4.177-2.732-4.177-2.732Z" fill="#86B3F3"/><path d="M33.128 16.364c2.69.268 9.078 4.955 14.49 4.955 2.73 0 4.321-.837 5.36-1.703.187-.156.392-.293.593-.447.27-.208.96-.92 1.186-.95.52-.648.274-.532.199-.872-.15-.674-2.108-3.045-5.234-5.409-2.076-1.57-4.656-2.095-7.536-2.253a22.216 22.216 0 0 0-3.387.06c-4.303.422-7.68 1.9-10.502 5.369-.741.91-1.102 1.96-1.838 3.162 3.068-1.864 3.978-2.179 6.669-1.912Z" fill="#E8E8E7"/></g><path d="M1.116 12.815V9.662h22.01v3.152h-9.228v26.78h-3.554v-26.78H1.116Zm79.807-3.161h3.553v19.43c0 2.006-.472 3.798-1.418 5.374-.936 1.566-2.26 2.803-3.97 3.71-1.71.899-3.715 1.348-6.018 1.348-2.302 0-4.308-.45-6.018-1.347-1.71-.908-3.038-2.145-3.983-3.711-.937-1.576-1.405-3.368-1.405-5.374V9.654h3.554v19.144c0 1.433.315 2.708.946 3.826.63 1.108 1.528 1.982 2.694 2.622 1.175.63 2.579.945 4.212.945 1.634 0 3.038-.315 4.213-.945 1.175-.64 2.073-1.514 2.694-2.622.63-1.118.946-2.393.946-3.826V9.654Zm10.058 29.975V9.627h9.916c2.292 0 4.174.392 5.645 1.175 1.471.774 2.56 1.84 3.267 3.196.707 1.356 1.061 2.9 1.061 4.628 0 1.73-.354 3.262-1.061 4.6-.707 1.337-1.791 2.388-3.252 3.152-1.462.755-3.329 1.132-5.603 1.132H92.93V24.3h7.909c1.567 0 2.828-.229 3.783-.687.965-.459 1.662-1.108 2.092-1.95.44-.85.659-1.862.659-3.037 0-1.175-.219-2.202-.659-3.08-.439-.88-1.141-1.558-2.106-2.035-.965-.488-2.24-.731-3.826-.731h-6.247v26.849H90.98Zm13.813-13.838 7.498 13.803h-4.127l-7.383-13.803h4.012Z" fill="#fff"/></svg><svg fill="none" viewBox="0 0 61 12" id="reviews-arrow" xmlns="http://www.w3.org/2000/svg"><path d="M60.53 6.53a.75.75 0 0 0 0-1.06L55.755.692a.75.75 0 0 0-1.061 1.061L58.938 6l-4.245 4.246a.75.75 0 0 0 1.061 1.061l4.777-4.776ZM0 6.75h60v-1.5H0v1.5Z" fill="#083E92"/></svg></svg>